<svg width="105" height="108" viewBox="0 0 105 108" fill="none" xmlns="http://www.w3.org/2000/svg">
<path d="M70.0729 60.7116C70.2169 60.1705 70.2649 59.5801 70.2649 58.9406V55.3493C70.2649 54.8574 70.2169 54.267 70.1209 53.7751C69.593 51.4137 67.7212 49.4951 65.0334 49.4951C61.2418 49.4951 59.13 52.9388 59.13 57.4155C59.13 61.7939 61.2418 64.9916 64.9854 64.9916C67.3852 64.9916 69.497 63.319 70.0729 60.7116Z" fill="white"/>
<path fill-rule="evenodd" clip-rule="evenodd" d="M29.6592 13.7814C44.7041 12.0579 60.2578 12.0579 75.3027 13.7814C83.5858 14.7303 90.2668 21.4199 91.2389 29.9399C93.0378 45.7048 93.0378 61.6308 91.2389 77.3957C90.2668 85.9157 83.5858 92.6053 75.3027 93.5542C60.2578 95.2777 44.7041 95.2777 29.6592 93.5542C21.3761 92.6053 14.6951 85.9157 13.7229 77.3957C11.9241 61.6308 11.9241 45.7048 13.7229 29.9399C14.6951 21.4199 21.3761 14.7303 29.6592 13.7814ZM70.2649 47.97V34.3921H76.1684V62.5811C76.1684 65.0408 76.2644 67.6974 76.3603 69.3208H71.0808L70.8409 65.5328H70.7449C69.353 68.1893 66.5213 69.862 63.1136 69.862C57.5461 69.862 53.1305 64.9916 53.1305 57.6123C53.0825 49.5935 57.9781 44.8215 63.5935 44.8215C66.8092 44.8215 69.113 46.199 70.1689 47.97H70.2649ZM43.3334 52.3484L53.1725 69.3208H46.3572L42.8535 62.7286C41.4616 60.1705 40.5497 58.3994 39.6378 56.4808H39.4938C38.7259 58.3994 37.862 60.1705 36.5661 62.7286L33.3504 69.3208H26.583L36.1821 52.5452L26.967 36.1631H33.7344L37.238 43.0013C38.2939 45.0675 39.0619 46.6909 39.9258 48.5604H40.0218C40.8857 46.4942 41.5576 45.0183 42.5655 43.0013L46.0212 36.1631H52.7886L43.3334 52.3484Z" fill="white"/>
</svg>
