<svg width="111" height="108" viewBox="0 0 111 108" fill="none" xmlns="http://www.w3.org/2000/svg">
<path d="M45.5622 40.5416C43.8488 40.5416 42.6393 40.6892 41.9842 40.8367V52.0533C42.7401 52.2501 43.748 52.2993 45.0079 52.2993C49.6442 52.2993 52.4664 50.0855 52.4664 46.199C52.4664 42.5094 49.8458 40.5416 45.5622 40.5416Z" fill="#8C8C8C"/>
<path fill-rule="evenodd" clip-rule="evenodd" d="M31.3284 13.7814C47.1256 12.0579 63.4569 12.0579 79.2541 13.7814C87.9514 14.7303 94.9663 21.4199 95.9871 29.9399C97.876 45.7048 97.876 61.6309 95.9871 77.3958C94.9663 85.9157 87.9514 92.6053 79.2541 93.5542C63.4569 95.2778 47.1256 95.2778 31.3284 93.5542C22.6311 92.6053 15.6161 85.9157 14.5953 77.3958C12.7065 61.6309 12.7065 45.7048 14.5953 29.9399C15.6161 21.4199 22.6311 14.7303 31.3284 13.7814ZM41.9842 69.3209H35.8359V36.6059C38.0533 36.2124 41.1274 35.9172 45.3103 35.9172C49.8458 35.9172 53.1719 36.8519 55.3389 38.6229C57.3547 40.2464 58.665 42.8537 58.665 45.9531C58.665 49.1016 57.6571 51.7089 55.7421 53.4799C53.2727 55.8905 49.3923 57.022 45.0079 57.022C43.8488 57.022 42.7905 56.9728 41.9842 56.8252V69.3209ZM66.5826 69.862C63.6092 69.862 60.9383 69.1241 59.1241 68.1402L60.3335 63.7618C61.7446 64.5981 64.4156 65.4836 66.633 65.4836C69.3543 65.4836 70.5638 64.4013 70.5638 62.8271C70.5638 61.2036 69.5559 60.3673 66.5322 59.3342C61.7446 57.7108 59.7288 55.1526 59.7792 52.3485C59.7792 48.1177 63.3573 44.8216 69.0519 44.8216C71.7733 44.8216 74.1419 45.5103 75.5529 46.2482L74.3434 50.5282C73.2851 49.9379 71.3197 49.1508 69.1527 49.1508C66.9353 49.1508 65.7258 50.1839 65.7258 51.6597C65.7258 53.1848 66.8849 53.9227 70.0094 55.005C74.4442 56.5793 76.5104 58.7931 76.5608 62.3351C76.5608 66.6643 73.0836 69.862 66.5826 69.862Z" fill="#8C8C8C"/>
</svg>
