<svg width="106" height="108" viewBox="0 0 106 108" fill="none" xmlns="http://www.w3.org/2000/svg">
<path d="M44.8784 40.5415C43.2466 40.5415 42.0947 40.6891 41.4708 40.8367V52.0533C42.1907 52.25 43.1506 52.2992 44.3505 52.2992C48.7661 52.2992 51.4538 50.0854 51.4538 46.199C51.4538 42.5094 48.9581 40.5415 44.8784 40.5415Z" fill="white"/>
<path fill-rule="evenodd" clip-rule="evenodd" d="M30.1038 13.7814C45.1487 12.0579 60.7023 12.0579 75.7473 13.7814C84.0304 14.7303 90.7113 21.4199 91.6835 29.9399C93.4824 45.7048 93.4824 61.6308 91.6835 77.3957C90.7113 85.9157 84.0304 92.6053 75.7473 93.5542C60.7023 95.2777 45.1487 95.2777 30.1038 93.5542C21.8206 92.6053 15.1397 85.9157 14.1675 77.3957C12.3686 61.6308 12.3686 45.7048 14.1675 29.9399C15.1397 21.4199 21.8206 14.7303 30.1038 13.7814ZM41.4708 69.3208H35.6153V36.6059C37.7271 36.2123 40.6548 35.9172 44.6385 35.9172C48.9581 35.9172 52.1258 36.8519 54.1896 38.6229C56.1094 40.2464 57.3573 42.8537 57.3573 45.953C57.3573 49.1015 56.3974 51.7089 54.5735 53.4799C52.2218 55.8905 48.5261 57.022 44.3505 57.022C43.2466 57.022 42.2387 56.9728 41.4708 56.8252V69.3208ZM65.6065 69.3208H59.703V53.0864C59.703 49.8395 59.6551 47.5273 59.5111 45.3627H64.6466L64.8386 49.9379H65.0305C66.1824 46.5434 68.9182 44.8215 71.4139 44.8215C71.9899 44.8215 72.3259 44.8707 72.8058 44.9691V50.6758C72.3259 50.5774 71.7979 50.479 71.078 50.479C68.2462 50.479 66.3264 52.3484 65.7985 55.0542C65.7025 55.5953 65.6065 56.2349 65.6065 56.9236V69.3208Z" fill="white"/>
</svg>
