<svg width="106" height="108" viewBox="0 0 106 108" fill="none" xmlns="http://www.w3.org/2000/svg">
<path d="M45.1333 40.5416C43.5015 40.5416 42.3496 40.6892 41.7256 40.8367V52.0533C42.4456 52.2501 43.4055 52.2993 44.6054 52.2993C49.021 52.2993 51.7087 50.0855 51.7087 46.199C51.7087 42.5094 49.2129 40.5416 45.1333 40.5416Z" fill="#8C8C8C"/>
<path fill-rule="evenodd" clip-rule="evenodd" d="M30.3587 13.7814C45.4036 12.0579 60.9572 12.0579 76.0022 13.7814C84.2853 14.7303 90.9662 21.4199 91.9384 29.9399C93.7373 45.7048 93.7373 61.6309 91.9384 77.3958C90.9662 85.9157 84.2853 92.6053 76.0022 93.5542C60.9572 95.2778 45.4036 95.2778 30.3587 93.5542C22.0755 92.6053 15.3946 85.9157 14.4224 77.3958C12.6235 61.6309 12.6235 45.7048 14.4224 29.9399C15.3946 21.4199 22.0755 14.7303 30.3587 13.7814ZM41.7256 69.3209H35.8702V36.6059C37.982 36.2124 40.9097 35.9172 44.8933 35.9172C49.2129 35.9172 52.3806 36.8519 54.4444 38.6229C56.3643 40.2464 57.6121 42.8537 57.6121 45.9531C57.6121 49.1016 56.6522 51.7089 54.8284 53.4799C52.4766 55.8905 48.781 57.022 44.6054 57.022C43.5015 57.022 42.4936 56.9728 41.7256 56.8252V69.3209ZM65.8614 69.3209H59.9579V53.0864C59.9579 49.8395 59.9099 47.5273 59.7659 45.3627H64.9015L65.0934 49.9379H65.2854C66.4373 46.5434 69.1731 44.8216 71.6688 44.8216C72.2448 44.8216 72.5807 44.8708 73.0607 44.9692V50.6758C72.5807 50.5774 72.0528 50.479 71.3329 50.479C68.5011 50.479 66.5813 52.3485 66.0534 55.0542C65.9574 55.5954 65.8614 56.2349 65.8614 56.9236V69.3209Z" fill="#8C8C8C"/>
</svg>
