<svg width="106" height="108" viewBox="0 0 106 108" fill="none" xmlns="http://www.w3.org/2000/svg">
<path d="M39.6804 47.1829L37.1846 55.3493H45.4878L42.944 47.1829C42.4391 45.5504 41.9969 43.7568 41.5923 42.115C41.4969 41.7283 41.4037 41.35 41.3122 40.9843H41.2162C41.0518 41.6417 40.8873 42.3452 40.719 43.0654C40.3961 44.4469 40.059 45.8893 39.6804 47.1829Z" fill="white"/>
<path d="M67.088 48.9539C63.4404 48.9539 61.9045 52.3484 61.6645 54.8082H71.9356C71.9836 52.5944 71.0237 48.9539 67.088 48.9539Z" fill="white"/>
<path fill-rule="evenodd" clip-rule="evenodd" d="M29.8816 13.7814C44.9265 12.0579 60.4802 12.0579 75.5251 13.7814C83.8082 14.7303 90.4892 21.4199 91.4614 29.9399C93.2602 45.7048 93.2602 61.6308 91.4614 77.3957C90.4892 85.9157 83.8082 92.6053 75.5251 93.5542C60.4802 95.2777 44.9266 95.2777 29.8816 93.5542C21.5985 92.6053 14.9175 85.9157 13.9453 77.3957C12.1465 61.6308 12.1465 45.7048 13.9453 29.9399C14.9175 21.4199 21.5985 14.7303 29.8816 13.7814ZM49.4234 69.3208L46.4957 59.9245H36.2247L33.4409 69.3208H27.3455L37.7125 36.1631H45.2478L55.7588 69.3208H49.4234ZM77.503 56.4808C77.503 57.6123 77.4071 58.4978 77.3111 59.039H61.6645C61.8085 63.3682 65.1202 65.2376 68.8639 65.2376C71.5996 65.2376 73.5674 64.844 75.3432 64.1553L76.2072 68.3369C74.1914 69.1732 71.4076 69.862 68.0479 69.862C60.4646 69.862 56.0011 65.0408 56.0011 57.7107C56.0011 51.0693 59.9367 44.8215 67.424 44.8215C75.0553 44.8215 77.503 51.2169 77.503 56.4808Z" fill="white"/>
</svg>
