<svg width="106" height="108" viewBox="0 0 106 108" fill="none" xmlns="http://www.w3.org/2000/svg">
<path d="M70.3278 60.7117C70.4718 60.1705 70.5198 59.5802 70.5198 58.9406V55.3494C70.5198 54.8574 70.4718 54.2671 70.3758 53.7751C69.8479 51.4137 67.976 49.4951 65.2883 49.4951C61.4966 49.4951 59.3848 52.9388 59.3848 57.4156C59.3848 61.794 61.4967 64.9917 65.2403 64.9917C67.6401 64.9917 69.7519 63.319 70.3278 60.7117Z" fill="#8C8C8C"/>
<path fill-rule="evenodd" clip-rule="evenodd" d="M29.9141 13.7814C44.959 12.0579 60.5126 12.0579 75.5576 13.7814C83.8407 14.7303 90.5216 21.4199 91.4938 29.9399C93.2927 45.7048 93.2927 61.6309 91.4938 77.3958C90.5216 85.9157 83.8407 92.6053 75.5576 93.5542C60.5126 95.2778 44.959 95.2778 29.9141 93.5542C21.6309 92.6053 14.95 85.9157 13.9778 77.3958C12.1789 61.6309 12.1789 45.7048 13.9778 29.9399C14.95 21.4199 21.6309 14.7303 29.9141 13.7814ZM70.5198 47.9701V34.3921H76.4232V62.5811C76.4232 65.0409 76.5192 67.6974 76.6152 69.3209H71.3357L71.0957 65.5328H70.9998C69.6079 68.1894 66.7762 69.862 63.3685 69.862C57.801 69.862 53.3854 64.9917 53.3854 57.6124C53.3374 49.5935 58.233 44.8215 63.8484 44.8215C67.0641 44.8215 69.3679 46.199 70.4238 47.9701H70.5198ZM43.5883 52.3484L53.4274 69.3209H46.612L43.1084 62.7287C41.7165 60.1705 40.8046 58.3995 39.8927 56.4809H39.7487C38.9808 58.3995 38.1168 60.1705 36.821 62.7287L33.6053 69.3209H26.8379L36.437 52.5452L27.2219 36.1632H33.9892L37.4929 43.0013C38.5488 45.0675 39.3167 46.691 40.1807 48.5604H40.2766C41.1406 46.4942 41.8125 45.0183 42.8204 43.0013L46.2761 36.1632H53.0434L43.5883 52.3484Z" fill="#8C8C8C"/>
</svg>
