<svg width="106" height="108" viewBox="0 0 106 108" fill="none" xmlns="http://www.w3.org/2000/svg">
<path d="M39.9352 47.1829L37.4395 55.3493H45.7427L43.1989 47.1829C42.6939 45.5504 42.2518 43.7568 41.8471 42.115C41.7518 41.7284 41.6586 41.35 41.5671 40.9843H41.4711C41.3066 41.6417 41.1422 42.3453 40.9739 43.0654C40.651 44.447 40.3138 45.8893 39.9352 47.1829Z" fill="#8C8C8C"/>
<path d="M67.3429 48.9539C63.6953 48.9539 62.1594 52.3484 61.9194 54.8082H72.1904C72.2384 52.5944 71.2785 48.9539 67.3429 48.9539Z" fill="#8C8C8C"/>
<path fill-rule="evenodd" clip-rule="evenodd" d="M30.1365 13.7814C45.1814 12.0579 60.7351 12.0579 75.78 13.7814C84.0631 14.7303 90.7441 21.4199 91.7162 29.9399C93.5151 45.7048 93.5151 61.6309 91.7162 77.3958C90.7441 85.9157 84.0631 92.6053 75.78 93.5542C60.7351 95.2778 45.1814 95.2778 30.1365 93.5542C21.8534 92.6053 15.1724 85.9157 14.2002 77.3958C12.4014 61.6309 12.4014 45.7048 14.2002 29.9399C15.1724 21.4199 21.8534 14.7303 30.1365 13.7814ZM49.6783 69.3208L46.7506 59.9245H36.4796L33.6958 69.3208H27.6004L37.9674 36.1631H45.5027L56.0137 69.3208H49.6783ZM77.7579 56.4808C77.7579 57.6123 77.6619 58.4978 77.5659 59.039H61.9194C62.0634 63.3682 65.3751 65.2376 69.1187 65.2376C71.8545 65.2376 73.8223 64.8441 75.5981 64.1553L76.4621 68.3369C74.4462 69.1732 71.6625 69.862 68.3028 69.862C60.7195 69.862 56.256 65.0408 56.256 57.7107C56.256 51.0693 60.1916 44.8215 67.6789 44.8215C75.3102 44.8215 77.7579 51.2169 77.7579 56.4808Z" fill="#8C8C8C"/>
</svg>
