<svg width="108" height="108" viewBox="0 0 108 108" fill="none" xmlns="http://www.w3.org/2000/svg">
<path d="M46.6714 47.1829L44.1132 55.3494H52.624L50.0167 47.1829C49.499 45.5504 49.0459 43.7568 48.6311 42.1151C48.5334 41.7284 48.4378 41.3501 48.344 40.9843H48.2456C48.0771 41.6417 47.9085 42.3453 47.736 43.0654C47.405 44.447 47.0595 45.8894 46.6714 47.1829Z" fill="#8C8C8C"/>
<path fill-rule="evenodd" clip-rule="evenodd" d="M30.4302 13.7814C45.8513 12.0579 61.7937 12.0579 77.2148 13.7814C85.705 14.7303 92.553 21.4199 93.5494 29.9399C95.3933 45.7048 95.3933 61.6309 93.5494 77.3958C92.553 85.9157 85.705 92.6053 77.2148 93.5542C61.7937 95.2778 45.8513 95.2778 30.4302 93.5542C21.94 92.6053 15.092 85.9157 14.0955 77.3958C12.2517 61.6309 12.2517 45.7048 14.0955 29.9399C15.092 21.4199 21.94 14.7303 30.4302 13.7814ZM71.4097 45.3627V69.3209H65.3095V45.3627H71.4097ZM64.9651 38.6721C64.9651 36.8027 66.3426 35.376 68.3596 35.376C70.4258 35.376 71.7049 36.8027 71.7541 38.6721C71.7541 40.4924 70.4258 41.919 68.3104 41.919C66.2934 41.919 64.9651 40.4924 64.9651 38.6721ZM56.658 69.3209L53.6571 59.9245H43.1293L40.276 69.3209H34.0282L44.6544 36.1632H52.378L63.1518 69.3209H56.658Z" fill="#8C8C8C"/>
</svg>
