<svg width="111" height="108" viewBox="0 0 111 108" fill="none" xmlns="http://www.w3.org/2000/svg">
<path d="M45.3073 40.5415C43.5939 40.5415 42.3844 40.6891 41.7293 40.8367V52.0533C42.4852 52.25 43.4931 52.2992 44.753 52.2992C49.3894 52.2992 52.2115 50.0854 52.2115 46.199C52.2115 42.5094 49.5909 40.5415 45.3073 40.5415Z" fill="white"/>
<path fill-rule="evenodd" clip-rule="evenodd" d="M31.0735 13.7814C46.8707 12.0579 63.202 12.0579 78.9992 13.7814C87.6965 14.7303 94.7115 21.4199 95.7323 29.9399C97.6211 45.7048 97.6211 61.6308 95.7323 77.3957C94.7115 85.9157 87.6965 92.6053 78.9992 93.5542C63.202 95.2777 46.8707 95.2777 31.0735 93.5542C22.3762 92.6053 15.3612 85.9157 14.3404 77.3957C12.4516 61.6308 12.4516 45.7048 14.3404 29.9399C15.3612 21.4199 22.3762 14.7303 31.0735 13.7814ZM41.7293 69.3208H35.5811V36.6059C37.7985 36.2123 40.8726 35.9172 45.0554 35.9172C49.5909 35.9172 52.917 36.8519 55.084 38.6229C57.0998 40.2464 58.4101 42.8537 58.4101 45.953C58.4101 49.1015 57.4022 51.7089 55.4872 53.4799C53.0178 55.8905 49.1374 57.022 44.753 57.022C43.5939 57.022 42.5356 56.9728 41.7293 56.8252V69.3208ZM66.3277 69.862C63.3544 69.862 60.6834 69.1241 58.8692 68.1401L60.0787 63.7618C61.4897 64.5981 64.1607 65.4836 66.3781 65.4836C69.0994 65.4836 70.3089 64.4013 70.3089 62.827C70.3089 61.2036 69.301 60.3673 66.2773 59.3342C61.4897 57.7107 59.4739 55.1526 59.5243 52.3484C59.5243 48.1176 63.1024 44.8215 68.797 44.8215C71.5184 44.8215 73.887 45.5103 75.298 46.2482L74.0886 50.5282C73.0303 49.9379 71.0648 49.1507 68.8978 49.1507C66.6804 49.1507 65.471 50.1838 65.471 51.6597C65.471 53.1847 66.6301 53.9227 69.7546 55.005C74.1893 56.5792 76.2556 58.793 76.3059 62.3351C76.3059 66.6643 72.8287 69.862 66.3277 69.862Z" fill="white"/>
</svg>
