<svg width="109" height="108" viewBox="0 0 109 108" fill="none" xmlns="http://www.w3.org/2000/svg">
<path d="M47.4165 47.1829L44.8583 55.3493H53.3691L50.7618 47.1829C50.2442 45.5504 49.791 43.7568 49.3762 42.115C49.2785 41.7283 49.1829 41.3501 49.0891 40.9843H48.9907C48.8222 41.6417 48.6536 42.3453 48.4811 43.0654C48.1501 44.4469 47.8046 45.8893 47.4165 47.1829Z" fill="white"/>
<path fill-rule="evenodd" clip-rule="evenodd" d="M31.1753 13.7814C46.5964 12.0579 62.5388 12.0579 77.9599 13.7814C86.4501 14.7303 93.2981 21.4199 94.2946 29.9399C96.1384 45.7048 96.1384 61.6308 94.2946 77.3957C93.2981 85.9157 86.4501 92.6053 77.9599 93.5542C62.5388 95.2777 46.5964 95.2777 31.1753 93.5542C22.6851 92.6053 15.8371 85.9157 14.8406 77.3957C12.9968 61.6308 12.9968 45.7048 14.8406 29.9399C15.8371 21.4199 22.6851 14.7303 31.1753 13.7814ZM72.1548 45.3627V69.3208H66.0546V45.3627H72.1548ZM65.7103 38.6721C65.7103 36.8027 67.0877 35.376 69.1047 35.376C71.1709 35.376 72.45 36.8027 72.4992 38.6721C72.4992 40.4923 71.1709 41.919 69.0555 41.919C67.0385 41.919 65.7103 40.4923 65.7103 38.6721ZM57.4032 69.3208L54.4022 59.9245H43.8744L41.0211 69.3208H34.7733L45.3995 36.1631H53.1232L63.897 69.3208H57.4032Z" fill="white"/>
</svg>
