<svg width="87" height="88" viewBox="0 0 87 88" fill="none" xmlns="http://www.w3.org/2000/svg">
<path d="M85.1647 68.0244H84.9441V68.4214H85.1709C85.2963 68.4214 85.3858 68.4064 85.4391 68.3761C85.4919 68.3463 85.5186 68.2974 85.5186 68.2289C85.5186 68.1572 85.4908 68.105 85.4349 68.0728C85.3795 68.0407 85.2891 68.0244 85.1647 68.0244ZM85.2043 67.8985C85.3863 67.8985 85.5211 67.9246 85.6094 67.9764C85.6978 68.0281 85.7423 68.1073 85.7423 68.2141C85.7423 68.2951 85.7151 68.3627 85.6613 68.4167C85.6069 68.4708 85.5332 68.5053 85.4406 68.5197L85.7287 69.0454H85.4877L85.2185 68.5472H84.9441V69.0454H84.7282V67.8985H85.2043ZM86.1646 68.495C86.1646 68.3743 86.1401 68.2602 86.0915 68.1525C86.0423 68.0444 85.9718 67.9494 85.8803 67.8669C85.7846 67.782 85.6764 67.7178 85.5567 67.674C85.437 67.6297 85.3089 67.6078 85.1725 67.6078C85.0376 67.6078 84.9116 67.6292 84.7945 67.6716C84.6774 67.7145 84.5735 67.777 84.4825 67.8584C84.3868 67.9447 84.3136 68.0421 84.2624 68.1502C84.2117 68.2583 84.1861 68.3715 84.1861 68.4895C84.1861 68.605 84.2112 68.7158 84.2609 68.8221C84.311 68.9283 84.3826 69.0244 84.4767 69.1097C84.5693 69.1936 84.6754 69.2574 84.7945 69.3021C84.9138 69.3464 85.0387 69.3688 85.1694 69.3688C85.3026 69.3688 85.4302 69.3469 85.5509 69.3026C85.6717 69.2588 85.7804 69.1945 85.8771 69.1097C85.9702 69.0281 86.0413 68.9345 86.0904 68.8292C86.1401 68.7239 86.1646 68.6125 86.1646 68.495V68.495ZM85.174 67.4847C85.3273 67.4847 85.472 67.5099 85.6089 67.5608C85.7454 67.611 85.8682 67.6847 85.9764 67.7812C86.0805 67.8739 86.1605 67.981 86.2159 68.1027C86.2719 68.2243 86.2995 68.3524 86.2995 68.488C86.2995 68.6255 86.2719 68.7546 86.2159 68.8748C86.1605 68.995 86.0795 69.1008 85.9733 69.1926C85.862 69.289 85.7376 69.3631 85.6006 69.4144C85.4631 69.4662 85.3209 69.4918 85.174 69.4918C85.0256 69.4918 84.8835 69.4662 84.7475 69.4154C84.6111 69.3645 84.4887 69.2899 84.3805 69.1926C84.2734 69.098 84.1918 68.9904 84.1354 68.8692C84.0794 68.748 84.0513 68.6213 84.0513 68.488C84.0513 68.3542 84.0805 68.2262 84.1385 68.1031C84.1965 67.9805 84.2807 67.8702 84.39 67.7727C84.4929 67.6791 84.6111 67.6078 84.7449 67.5584C84.8787 67.5095 85.022 67.4847 85.174 67.4847V67.4847Z" fill="#8C8C8C"/>
<path d="M6.22256 78.4025C5.46751 78.4025 4.76105 78.283 4.10339 78.0437C3.44557 77.8045 2.87619 77.4511 2.39518 76.9836C1.91398 76.5161 1.53335 75.9397 1.25318 75.2547C0.973066 74.5697 0.833008 73.7868 0.833008 72.906C0.833008 72.0362 0.976199 71.256 1.26243 70.5656C1.54867 69.8751 1.93835 69.2907 2.43159 68.8123C2.92498 68.3339 3.50351 67.9695 4.1673 67.7195C4.83108 67.4694 5.54052 67.3444 6.29572 67.3444C7.05078 67.3444 7.72068 67.4802 8.30533 67.752C8.88998 68.0239 9.37104 68.3392 9.74869 68.6981L8.61594 69.9214C8.29921 69.6386 7.95827 69.413 7.5928 69.2445C7.22744 69.0759 6.81333 68.9916 6.35044 68.9916C5.86332 68.9916 5.41573 69.0813 5.00775 69.2607C4.59971 69.4402 4.24643 69.6957 3.94801 70.0273C3.64954 70.3589 3.41817 70.764 3.25374 71.2425C3.08941 71.7209 3.00719 72.2591 3.00719 72.8572C3.00719 74.075 3.30248 75.0291 3.89325 75.7196C4.48387 76.41 5.28473 76.7553 6.29572 76.7553C6.83164 76.7553 7.30657 76.6547 7.72068 76.4536C8.13478 76.2523 8.51243 75.9887 8.85343 75.6625L9.98618 76.8531C9.49891 77.3533 8.94176 77.7366 8.31453 78.003C7.6872 78.2694 6.98995 78.4025 6.22256 78.4025ZM14.9526 78.4025C14.3923 78.4025 13.8564 78.3101 13.3447 78.1254C12.8332 77.9405 12.3796 77.6686 11.9837 77.3098C11.5879 76.951 11.2742 76.5107 11.0428 75.9887C10.8114 75.4667 10.6957 74.8742 10.6957 74.2109C10.6957 73.5476 10.8114 72.955 11.0428 72.4331C11.2742 71.9111 11.5879 71.4708 11.9837 71.112C12.3796 70.7532 12.8332 70.4786 13.3447 70.2883C13.8564 70.0981 14.3923 70.0029 14.9526 70.0029C15.5127 70.0029 16.0517 70.0981 16.5693 70.2883C17.0871 70.4786 17.5407 70.7532 17.9305 71.112C18.3202 71.4708 18.6338 71.9111 18.8714 72.4331C19.1089 72.955 19.2275 73.5476 19.2275 74.2109C19.2275 74.8742 19.1089 75.4667 18.8714 75.9887C18.6338 76.5107 18.3202 76.951 17.9305 77.3098C17.5407 77.6686 17.0871 77.9405 16.5693 78.1254C16.0517 78.3101 15.5127 78.4025 14.9526 78.4025ZM14.9526 76.8695C15.6102 76.8695 16.1278 76.6275 16.5054 76.1436C16.883 75.6597 17.0718 75.0155 17.0718 74.2109C17.0718 73.3954 16.883 72.7457 16.5054 72.2618C16.1278 71.778 15.6102 71.536 14.9526 71.536C14.2948 71.536 13.7802 71.778 13.4087 72.2618C13.0372 72.7457 12.8515 73.3954 12.8515 74.2109C12.8515 75.0155 13.0372 75.6597 13.4087 76.1436C13.7802 76.6275 14.2948 76.8695 14.9526 76.8695ZM20.4303 78.2069V70.1985H22.166L22.3122 71.6176H22.3852C22.7019 71.0956 23.0855 70.6961 23.5363 70.4188C23.9868 70.1415 24.4497 70.0029 24.9248 70.0029C25.3509 70.0029 25.692 70.0572 25.9478 70.166L25.5824 71.797C25.4241 71.7535 25.2779 71.7209 25.1439 71.6991C25.01 71.6773 24.8455 71.6665 24.6507 71.6665C24.2974 71.6665 23.926 71.7888 23.5363 72.0335C23.1465 72.2782 22.8115 72.7049 22.5314 73.3138V78.2069H20.4303ZM30.3843 78.4025C29.7633 78.4025 29.1847 78.3075 28.6488 78.1172C28.1129 77.9269 27.6439 77.6524 27.242 77.2935C26.8401 76.9347 26.5265 76.497 26.3012 75.9806C26.0758 75.4641 25.9632 74.8742 25.9632 74.2109C25.9632 73.5585 26.0789 72.9714 26.3103 72.4494C26.5416 71.9274 26.8493 71.4871 27.2329 71.1283C27.6165 70.7695 28.0581 70.4922 28.5575 70.2965C29.0568 70.1007 29.5683 70.0029 30.092 70.0029C30.7011 70.0029 31.237 70.0953 31.6999 70.2802C32.1626 70.465 32.5494 70.7259 32.86 71.063C33.1706 71.4001 33.4049 71.8024 33.5633 72.2699C33.7217 72.7376 33.8008 73.2485 33.8008 73.8031C33.8008 73.9879 33.7917 74.162 33.7734 74.3251C33.7551 74.4881 33.7338 74.6186 33.7095 74.7165H28.0094C28.1068 75.4342 28.3899 75.9861 28.8589 76.372C29.3279 76.758 29.9277 76.951 30.6584 76.951C31.0483 76.951 31.4105 76.8994 31.7455 76.7961C32.0805 76.6928 32.4124 76.5488 32.7412 76.3638L33.4537 77.5381C33.0274 77.7882 32.5525 77.9949 32.0286 78.1579C31.5049 78.3211 30.9569 78.4025 30.3843 78.4025V78.4025ZM27.9911 73.4443H31.9739C31.9739 72.8245 31.8246 72.3379 31.5263 71.9845C31.2279 71.6312 30.7681 71.4545 30.1469 71.4545C29.611 71.4545 29.142 71.623 28.7401 71.9601C28.3382 72.2972 28.0885 72.7919 27.9911 73.4443ZM37.3421 78.4025C36.587 78.4025 36.0572 78.2013 35.7527 77.7991C35.4483 77.3968 35.2959 76.8477 35.2959 76.1518V67.5544H37.3969V76.2497C37.3969 76.4779 37.4457 76.6385 37.5431 76.7308C37.6404 76.8232 37.744 76.8695 37.8537 76.8695C37.9024 76.8695 37.948 76.8695 37.9907 76.8695C38.0333 76.8695 38.0973 76.8586 38.1825 76.8368L38.4565 78.2396C38.1764 78.3482 37.8049 78.4025 37.3421 78.4025V78.4025ZM39.9152 78.2069V67.54H43.1124C44.9393 67.54 46.3644 67.9804 47.3875 68.8611C48.4106 69.7419 48.9221 71.063 48.9221 72.8245C48.9221 73.7053 48.7912 74.4827 48.5294 75.1569C48.2675 75.831 47.8899 76.3937 47.3966 76.8451C46.9034 77.2962 46.3066 77.6361 45.6062 77.8644C44.9058 78.0927 44.1111 78.2069 43.222 78.2069H39.9152ZM42.0345 76.6738H42.9662C44.1842 76.6738 45.119 76.3612 45.7706 75.7359C46.4222 75.1107 46.748 74.1402 46.748 72.8245C46.748 71.5198 46.4193 70.5683 45.7614 69.9702C45.1038 69.3722 44.1721 69.0731 42.9662 69.0731H42.0345V76.6738ZM50.4538 78.2069V67.54H54.4914C55.1125 67.54 55.6911 67.5944 56.227 67.7032C56.7629 67.8119 57.2258 67.9886 57.6155 68.2332C58.0052 68.4779 58.3127 68.8014 58.5382 69.2036C58.7634 69.606 58.8761 70.1062 58.8761 70.7042C58.8761 71.5198 58.6599 72.1775 58.2275 72.6777C57.7951 73.1779 57.2197 73.5367 56.5011 73.7542L59.3511 78.2069H56.976L54.4 74.0315H52.5731V78.2069H50.4538ZM52.5731 72.5309H54.2721C55.0881 72.5309 55.7124 72.3788 56.1448 72.0743C56.5772 71.7698 56.7934 71.3131 56.7934 70.7042C56.7934 70.0844 56.5772 69.655 56.1448 69.4157C55.7124 69.1765 55.0881 69.0569 54.2721 69.0569H52.5731V72.5309ZM63.8242 72.5309L63.404 73.8358H66.4551L66.0349 72.5309C65.8399 71.9655 65.6542 71.3839 65.4777 70.7858C65.3011 70.1877 65.1275 69.5951 64.957 69.0079H64.8838C64.7134 69.606 64.5429 70.2013 64.3723 70.7939C64.2018 71.3865 64.0191 71.9655 63.8242 72.5309V72.5309ZM59.8232 78.2069L63.7147 67.54H66.1993L70.0908 78.2069H67.8619L66.9302 75.3201H62.9108L61.979 78.2069H59.8232ZM71.5127 78.2069L69.1378 67.54H71.3119L72.3532 72.9224C72.4506 73.4986 72.5481 74.0696 72.6455 74.6349C72.7429 75.2004 72.8405 75.7658 72.9379 76.3312H73.0109C73.1449 75.7658 73.2758 75.1976 73.4037 74.6269C73.5316 74.0559 73.6626 73.4878 73.7966 72.9224L75.2581 67.54H77.1034L78.5649 72.9224C78.6989 73.477 78.8328 74.0396 78.9668 74.6105C79.1008 75.1813 79.2348 75.7549 79.3687 76.3312H79.4419C79.5393 75.7549 79.6337 75.1841 79.725 74.6186C79.8163 74.0532 79.9107 73.4878 80.0082 72.9224L81.0496 67.54H83.0775L80.7938 78.2069H78.163L76.6832 72.5962C76.5856 72.183 76.4913 71.7725 76.3999 71.3647C76.3086 70.9571 76.2264 70.5465 76.1534 70.1333H76.0802C75.995 70.5465 75.9067 70.9571 75.8153 71.3647C75.7239 71.7725 75.6295 72.183 75.5321 72.5962L74.0889 78.2069H71.5127Z" fill="#8C8C8C"/>
<path d="M5.10319 87.2097C4.59284 87.2097 4.12367 87.1315 3.69579 86.9753C3.2679 86.8191 2.90094 86.5931 2.59466 86.2975C2.28848 86.0021 2.049 85.6386 1.87622 85.2071C1.70348 84.7757 1.61719 84.2882 1.61719 83.7446C1.61719 83.208 1.70552 82.7255 1.88209 82.2975C2.0589 81.8695 2.3041 81.5059 2.61829 81.2071C2.93228 80.9081 3.30714 80.6788 3.74289 80.5191C4.17863 80.3595 4.65158 80.2797 5.16198 80.2797C5.42906 80.2797 5.67427 80.3034 5.89808 80.351C6.12185 80.3986 6.32597 80.4614 6.51049 80.5395C6.69492 80.6176 6.85984 80.7059 7.00502 80.8045C7.15035 80.903 7.27793 81.0032 7.38785 81.1051L6.84611 81.6555C6.64985 81.4788 6.42216 81.3294 6.16298 81.2071C5.904 81.0847 5.57817 81.0236 5.1856 81.0236C4.79298 81.0236 4.43975 81.0865 4.12561 81.2122C3.81157 81.3379 3.54464 81.5179 3.3249 81.7522C3.10491 81.9867 2.93422 82.2704 2.81246 82.6032C2.69086 82.9361 2.62998 83.3098 2.62998 83.7243C2.62998 84.1455 2.68683 84.5243 2.80082 84.8606C2.91452 85.1969 3.07955 85.4839 3.29536 85.7218C3.51136 85.9596 3.7782 86.1429 4.09617 86.2721C4.41409 86.4012 4.78129 86.4657 5.19739 86.4657C5.47219 86.4657 5.73315 86.43 5.98045 86.3587C6.22784 86.2874 6.42992 86.1905 6.58704 86.0683V84.3256H4.95V83.6223H7.48205V86.4351C7.23073 86.6594 6.90107 86.8445 6.49273 86.9905C6.08455 87.1366 5.62135 87.2097 5.10319 87.2097V87.2097ZM9.33091 87.0874V80.402H11.7453C12.1379 80.402 12.5009 80.4342 12.8346 80.4987C13.1683 80.5633 13.4549 80.6703 13.6943 80.8197C13.9337 80.9693 14.1202 81.1629 14.2537 81.4007C14.3873 81.6385 14.4539 81.9306 14.4539 82.2771C14.4539 82.8003 14.297 83.2181 13.9828 83.5307C13.6688 83.8432 13.2449 84.0572 12.7109 84.1727L14.6777 87.0874H13.5707L11.71 84.2645H10.3085V87.0874H9.33091ZM10.3085 83.5715H11.6039C12.2085 83.5715 12.6716 83.4644 12.9935 83.2504C13.3154 83.0364 13.4764 82.7119 13.4764 82.2771C13.4764 81.8355 13.3154 81.5264 12.9935 81.3497C12.6716 81.1731 12.2085 81.0847 11.6039 81.0847H10.3085V83.5715ZM17.3157 83.3472L16.9506 84.3663H19.2706L18.9055 83.3472C18.7642 82.9735 18.6308 82.6015 18.5052 82.2313C18.3795 81.861 18.2539 81.4822 18.1283 81.095H18.0812C17.9634 81.4822 17.8417 81.861 17.7161 82.2313C17.5905 82.6015 17.457 82.9735 17.3157 83.3472V83.3472ZM14.9603 87.0874L17.5749 80.402H18.6818L21.2962 87.0874H20.2482L19.518 85.0491H16.7032L15.9613 87.0874H14.9603ZM22.0382 87.0874V80.402H24.2404C24.6723 80.402 25.0669 80.4359 25.424 80.5038C25.7814 80.5718 26.0855 80.6822 26.3368 80.8351C26.5879 80.9879 26.7842 81.19 26.9255 81.4414C27.067 81.6928 27.1376 82.0019 27.1376 82.3688C27.1376 82.7222 27.0688 83.0279 26.9315 83.2861C26.794 83.5442 26.5997 83.7582 26.3487 83.9281C26.0973 84.098 25.797 84.2253 25.4477 84.3102C25.0982 84.3951 24.7115 84.4376 24.2875 84.4376H23.0158V87.0874H22.0382ZM23.0158 83.7446H24.1698C24.8451 83.7446 25.3455 83.6342 25.6713 83.4134C25.9972 83.1927 26.1601 82.8444 26.1601 82.3688C26.1601 81.8864 25.9893 81.5518 25.6477 81.365C25.3063 81.1782 24.7979 81.0847 24.1228 81.0847H23.0158V83.7446ZM28.3505 87.0874V80.402H29.3281V83.2046H32.92V80.402H33.9092V87.0874H32.92V83.9383H29.3281V87.0874H28.3505ZM36.029 87.0874V80.402H37.0065V87.0874H36.029ZM41.6938 87.2097C41.207 87.2097 40.7594 87.1315 40.3512 86.9753C39.9429 86.8191 39.5876 86.5931 39.2852 86.2975C38.9831 86.0021 38.7476 85.6386 38.5789 85.2071C38.4099 84.7757 38.3255 84.2882 38.3255 83.7446C38.3255 83.208 38.412 82.7255 38.5846 82.2975C38.7575 81.8695 38.9969 81.5059 39.303 81.2071C39.6093 80.9081 39.9704 80.6788 40.3865 80.5191C40.8026 80.3595 41.2579 80.2797 41.7527 80.2797C42.2237 80.2797 42.6379 80.3629 42.9951 80.5294C43.3524 80.6957 43.6448 80.8877 43.8726 81.1051L43.3425 81.6555C43.1382 81.4651 42.9067 81.3123 42.6476 81.1968C42.3885 81.0814 42.0942 81.0236 41.7645 81.0236C41.3955 81.0236 41.0618 81.0865 40.7634 81.2122C40.4649 81.3379 40.2098 81.5179 39.9979 81.7522C39.7859 81.9867 39.6229 82.2704 39.5092 82.6032C39.3953 82.9361 39.3383 83.3098 39.3383 83.7243C39.3383 84.1455 39.3953 84.5243 39.5092 84.8606C39.6229 85.1969 39.7819 85.4839 39.9862 85.7218C40.1901 85.9596 40.4396 86.1429 40.7339 86.2721C41.0283 86.4012 41.3601 86.4657 41.7291 86.4657C42.1059 86.4657 42.4357 86.3995 42.7182 86.267C43.0009 86.1345 43.268 85.9493 43.5192 85.7116L44.0609 86.2415C43.7546 86.5472 43.4093 86.785 43.0245 86.9549C42.6398 87.1247 42.1962 87.2097 41.6938 87.2097V87.2097ZM47.3585 87.2097C46.8167 87.2097 46.3142 87.1213 45.851 86.9447C45.3878 86.7681 44.9874 86.5269 44.6497 86.2211L45.2386 85.63C45.5134 85.8815 45.8372 86.0836 46.2101 86.2364C46.5831 86.3892 46.9698 86.4657 47.3701 86.4657C47.8805 86.4657 48.2771 86.3655 48.5596 86.1651C48.8423 85.9647 48.9836 85.7014 48.9836 85.3753C48.9836 85.2054 48.9503 85.061 48.8835 84.9422C48.8169 84.8232 48.7265 84.7213 48.6127 84.6363C48.4988 84.5514 48.3634 84.475 48.2064 84.4071C48.0494 84.3392 47.8806 84.2677 47.6999 84.193L46.593 83.7753C46.4123 83.7072 46.2279 83.6257 46.0394 83.5307C45.851 83.4355 45.6821 83.3201 45.5331 83.1841C45.3839 83.0482 45.2621 82.8868 45.1679 82.7C45.0737 82.5132 45.0266 82.2975 45.0266 82.0529C45.0266 81.8015 45.0874 81.5671 45.2092 81.3497C45.3308 81.1323 45.4996 80.9437 45.7156 80.7841C45.9315 80.6244 46.1867 80.5004 46.481 80.4121C46.7755 80.3238 47.0993 80.2797 47.4527 80.2797C47.916 80.2797 48.3438 80.3561 48.7363 80.5089C49.1289 80.6618 49.4626 80.8605 49.7374 81.1051L49.2074 81.6555C48.9718 81.4584 48.7108 81.3038 48.4242 81.1917C48.1377 81.0796 47.8138 81.0236 47.4527 81.0236C47.0209 81.0236 46.6734 81.1102 46.4104 81.2835C46.1474 81.4568 46.0158 81.6962 46.0158 82.0019C46.0158 82.165 46.0532 82.3026 46.1277 82.4147C46.2023 82.5268 46.3024 82.6253 46.4282 82.7103C46.5537 82.7952 46.691 82.8699 46.8404 82.9344C46.9895 82.999 47.1425 83.0584 47.2996 83.1128L48.3949 83.5204C48.6146 83.602 48.8228 83.6954 49.019 83.8007C49.2152 83.906 49.3841 84.0283 49.5254 84.1676C49.6667 84.3068 49.7786 84.4699 49.8609 84.6568C49.9435 84.8436 49.9847 85.0593 49.9847 85.3039C49.9847 85.5689 49.9239 85.8168 49.8022 86.0479C49.6804 86.2789 49.5057 86.481 49.2781 86.6543C49.0505 86.8275 48.7757 86.9634 48.4536 87.062C48.1317 87.1604 47.7667 87.2097 47.3585 87.2097V87.2097ZM56.0028 87.2097C55.4609 87.2097 54.9585 87.1213 54.4953 86.9447C54.032 86.7681 53.6316 86.5269 53.2939 86.2211L53.8829 85.63C54.1577 85.8815 54.4815 86.0836 54.8544 86.2364C55.2273 86.3892 55.6141 86.4657 56.0145 86.4657C56.5249 86.4657 56.9213 86.3655 57.2039 86.1651C57.4866 85.9647 57.6279 85.7014 57.6279 85.3753C57.6279 85.2054 57.5946 85.061 57.5277 84.9422C57.4611 84.8232 57.3708 84.7213 57.257 84.6363C57.143 84.5514 57.0075 84.475 56.8507 84.4071C56.6937 84.3392 56.5249 84.2677 56.3442 84.193L55.2372 83.7753C55.0566 83.7072 54.8722 83.6257 54.6837 83.5307C54.4953 83.4355 54.3264 83.3201 54.1774 83.1841C54.0281 83.0482 53.9064 82.8868 53.8122 82.7C53.7179 82.5132 53.6708 82.2975 53.6708 82.0529C53.6708 81.8015 53.7317 81.5671 53.8534 81.3497C53.9751 81.1323 54.1439 80.9437 54.3599 80.7841C54.5757 80.6244 54.8309 80.5004 55.1253 80.4121C55.4197 80.3238 55.7436 80.2797 56.097 80.2797C56.5601 80.2797 56.988 80.3561 57.3805 80.5089C57.7731 80.6618 58.1068 80.8605 58.3816 81.1051L57.8516 81.6555C57.6161 81.4584 57.3551 81.3038 57.0685 81.1917C56.7819 81.0796 56.4581 81.0236 56.097 81.0236C55.6651 81.0236 55.3176 81.1102 55.0547 81.2835C54.7917 81.4568 54.6601 81.6962 54.6601 82.0019C54.6601 82.165 54.6975 82.3026 54.772 82.4147C54.8465 82.5268 54.9467 82.6253 55.0723 82.7103C55.1979 82.7952 55.3353 82.8699 55.4845 82.9344C55.6338 82.999 55.7867 83.0584 55.9437 83.1128L57.039 83.5204C57.2589 83.602 57.467 83.6954 57.6632 83.8007C57.8595 83.906 58.0283 84.0283 58.1697 84.1676C58.311 84.3068 58.4229 84.4699 58.5052 84.6568C58.5877 84.8436 58.629 85.0593 58.629 85.3039C58.629 85.5689 58.568 85.8168 58.4464 86.0479C58.3246 86.2789 58.15 86.481 57.9224 86.6543C57.6946 86.8275 57.42 86.9634 57.0979 87.062C56.776 87.1604 56.411 87.2097 56.0028 87.2097V87.2097ZM62.5387 87.2097C62.1462 87.2097 61.7791 87.1604 61.4376 87.062C61.0962 86.9634 60.8017 86.8003 60.5544 86.5728C60.307 86.3451 60.1128 86.0479 59.9714 85.681C59.8301 85.3142 59.7594 84.8623 59.7594 84.3256V80.402H60.7369V84.346C60.7369 84.7468 60.784 85.0831 60.8782 85.3549C60.9724 85.6266 61.1001 85.8441 61.261 86.0072C61.422 86.1702 61.6124 86.2874 61.8322 86.3587C62.052 86.43 62.2875 86.4657 62.5387 86.4657C62.7978 86.4657 63.0373 86.43 63.2572 86.3587C63.477 86.2874 63.6694 86.1702 63.8342 86.0072C63.9991 85.8441 64.1287 85.6266 64.2229 85.3549C64.317 85.0831 64.3641 84.7468 64.3641 84.346V80.402H65.3063V84.3256C65.3063 84.8623 65.2356 85.3142 65.0942 85.681C64.9529 86.0479 64.7588 86.3451 64.5114 86.5728C64.2641 86.8003 63.9715 86.9634 63.6341 87.062C63.2965 87.1604 62.9314 87.2097 62.5387 87.2097V87.2097ZM67.0376 87.0874V80.402H68.015V87.0874H67.0376ZM71.3832 87.0874V81.1153H69.0513V80.402H74.7042V81.1153H72.3724V87.0874H71.3832ZM76.0937 87.0874V80.402H80.5456V81.1153H77.0714V83.2147H80.0037V83.9383H77.0714V86.3638H80.6633V87.0874H76.0937Z" fill="#8C8C8C"/>
<path fill-rule="evenodd" clip-rule="evenodd" d="M43.4274 51.1818H42.4583C38.5314 39.533 36.2413 29.4962 35.7255 21.4646C34.9809 9.86899 37.635 2.45201 41.8858 0.395976C42.2815 0.204737 42.7237 0.0551913 43.4274 0.0452453C44.131 0.0551913 44.5732 0.204737 44.9688 0.395976C49.2204 2.45245 51.8747 9.87209 51.1287 21.4723C50.6122 29.5026 48.3221 39.5367 44.3966 51.1818H43.4274ZM39.8235 0C39.8235 0 28.2646 3.90568 29.0966 18.9273C29.9287 33.9488 41.4255 51.1738 41.4255 51.1738C34.3477 45.5676 23.8644 28.1029 23.6622 17.8257C23.8181 6.981 31.8191 2.59223 34.0831 1.62893C36.3473 0.665628 38.7458 0.0408941 39.8235 0ZM29.7291 2.63951C29.7291 2.63951 17.3128 7.2054 19.7683 20.387C22.2237 33.5686 35.2901 47.6357 39.1706 50.6237C40.5621 51.7627 23.1352 34.3975 21.4456 19.1445C20.6368 13.3857 22.5218 7.00213 29.7291 2.63951ZM57.4035 2.63951C57.4035 2.63951 69.8198 7.2054 67.3643 20.387C64.9088 33.5686 51.8422 47.6357 47.9617 50.6237C46.5707 51.7627 63.9973 34.3975 65.687 19.1445C66.4958 13.3857 64.6107 7.00213 57.4035 2.63951ZM47.2542 0C47.2542 0 58.8131 3.90568 57.9811 18.9273C57.1491 33.9488 45.652 51.1738 45.652 51.1738C52.73 45.5676 63.2131 28.1029 63.4153 17.8257C63.2596 6.981 55.2587 2.59223 52.9944 1.62893C50.7304 0.665628 48.3319 0.0408941 47.2542 0V0Z" fill="#8C8C8C"/>
<path fill-rule="evenodd" clip-rule="evenodd" d="M48.3785 54.1447H38.4766L39.8062 59.4852H47.0313L48.3785 54.1447Z" fill="#8C8C8C"/>
</svg>
