<svg width="87" height="88" viewBox="0 0 87 88" fill="none" xmlns="http://www.w3.org/2000/svg">
<path d="M84.9098 68.0243H84.6892V68.4213H84.916C85.0414 68.4213 85.1309 68.4064 85.1842 68.3761C85.237 68.3463 85.2637 68.2973 85.2637 68.2289C85.2637 68.1572 85.2359 68.105 85.18 68.0728C85.1246 68.0406 85.0342 68.0243 84.9098 68.0243ZM84.9494 67.8985C85.1314 67.8985 85.2662 67.9246 85.3546 67.9763C85.4429 68.028 85.4874 68.1072 85.4874 68.214C85.4874 68.2951 85.4602 68.3626 85.4064 68.4166C85.352 68.4707 85.2783 68.5052 85.1858 68.5197L85.4738 69.0453H85.2328L84.9637 68.5471H84.6892V69.0453H84.4733V67.8985H84.9494ZM85.9098 68.4949C85.9098 68.3743 85.8852 68.2601 85.8366 68.1524C85.7875 68.0443 85.7169 67.9493 85.6254 67.8668C85.5297 67.782 85.4215 67.7177 85.3018 67.6739C85.1821 67.6296 85.054 67.6077 84.9176 67.6077C84.7828 67.6077 84.6567 67.6292 84.5396 67.6715C84.4225 67.7145 84.3186 67.7769 84.2276 67.8584C84.1319 67.9447 84.0587 68.0421 84.0075 68.1502C83.9568 68.2583 83.9312 68.3715 83.9312 68.4894C83.9312 68.6049 83.9563 68.7158 84.006 68.8221C84.0562 68.9283 84.1278 69.0243 84.2218 69.1096C84.3144 69.1935 84.4205 69.2573 84.5396 69.3021C84.6589 69.3464 84.7838 69.3687 84.9145 69.3687C85.0478 69.3687 85.1753 69.3468 85.296 69.3025C85.4168 69.2587 85.5256 69.1944 85.6222 69.1096C85.7153 69.028 85.7865 68.9344 85.8355 68.8291C85.8852 68.7238 85.9098 68.6124 85.9098 68.4949V68.4949ZM84.9191 67.4847C85.0724 67.4847 85.2171 67.5099 85.3541 67.5607C85.4905 67.611 85.6133 67.6846 85.7216 67.7811C85.8256 67.8739 85.9056 67.981 85.961 68.1026C86.017 68.2243 86.0446 68.3524 86.0446 68.4879C86.0446 68.6254 86.017 68.7545 85.961 68.8747C85.9056 68.995 85.8246 69.1008 85.7184 69.1925C85.6071 69.289 85.4827 69.3631 85.3457 69.4144C85.2082 69.4661 85.0661 69.4917 84.9191 69.4917C84.7707 69.4917 84.6286 69.4661 84.4926 69.4153C84.3562 69.3644 84.2338 69.2899 84.1256 69.1925C84.0185 69.0979 83.9369 68.9903 83.8805 68.8692C83.8245 68.748 83.7964 68.6213 83.7964 68.4879C83.7964 68.3542 83.8256 68.2261 83.8837 68.1031C83.9416 67.9805 84.0259 67.8701 84.1351 67.7726C84.238 67.679 84.3562 67.6077 84.49 67.5583C84.6239 67.5094 84.7671 67.4847 84.9191 67.4847V67.4847Z" fill="white"/>
<path d="M5.96768 78.4026C5.21263 78.4026 4.50617 78.283 3.8485 78.0438C3.19069 77.8046 2.6213 77.4512 2.1403 76.9837C1.6591 76.5161 1.27847 75.9398 0.998299 75.2548C0.718183 74.5698 0.578125 73.7868 0.578125 72.9061C0.578125 72.0362 0.721316 71.256 1.00755 70.5656C1.29378 69.8751 1.68347 69.2907 2.17671 68.8123C2.67009 68.3339 3.24863 67.9695 3.91241 67.7195C4.5762 67.4694 5.28564 67.3444 6.04084 67.3444C6.79589 67.3444 7.46579 67.4802 8.05045 67.752C8.6351 68.0239 9.11615 68.3392 9.4938 68.6981L8.36105 69.9214C8.04433 69.6386 7.70339 69.413 7.33792 69.2445C6.97256 69.0759 6.55845 68.9917 6.09555 68.9917C5.60843 68.9917 5.16085 69.0814 4.75286 69.2607C4.34482 69.4402 3.99155 69.6958 3.69313 70.0274C3.39466 70.3589 3.16328 70.7641 2.99885 71.2425C2.83452 71.7209 2.75231 72.2591 2.75231 72.8572C2.75231 74.0751 3.0476 75.0291 3.63837 75.7196C4.22899 76.4101 5.02985 76.7554 6.04084 76.7554C6.57675 76.7554 7.05169 76.6547 7.46579 76.4536C7.8799 76.2524 8.25755 75.9887 8.59855 75.6626L9.7313 76.8532C9.24403 77.3534 8.68688 77.7366 8.05965 78.003C7.43232 78.2695 6.73506 78.4026 5.96768 78.4026ZM14.6977 78.4026C14.1374 78.4026 13.6015 78.3102 13.0899 78.1254C12.5783 77.9405 12.1247 77.6687 11.7288 77.3098C11.333 76.951 11.0193 76.5107 10.7879 75.9887C10.5565 75.4668 10.4408 74.8742 10.4408 74.211C10.4408 73.5476 10.5565 72.955 10.7879 72.4331C11.0193 71.9112 11.333 71.4708 11.7288 71.112C12.1247 70.7532 12.5783 70.4787 13.0899 70.2883C13.6015 70.0981 14.1374 70.0029 14.6977 70.0029C15.2578 70.0029 15.7968 70.0981 16.3144 70.2883C16.8322 70.4787 17.2858 70.7532 17.6756 71.112C18.0653 71.4708 18.3789 71.9112 18.6165 72.4331C18.854 72.955 18.9726 73.5476 18.9726 74.211C18.9726 74.8742 18.854 75.4668 18.6165 75.9887C18.3789 76.5107 18.0653 76.951 17.6756 77.3098C17.2858 77.6687 16.8322 77.9405 16.3144 78.1254C15.7968 78.3102 15.2578 78.4026 14.6977 78.4026ZM14.6977 76.8695C15.3554 76.8695 15.873 76.6275 16.2505 76.1437C16.6282 75.6598 16.8169 75.0155 16.8169 74.211C16.8169 73.3954 16.6282 72.7457 16.2505 72.2618C15.873 71.778 15.3554 71.536 14.6977 71.536C14.0399 71.536 13.5254 71.778 13.1538 72.2618C12.7823 72.7457 12.5966 73.3954 12.5966 74.211C12.5966 75.0155 12.7823 75.6598 13.1538 76.1437C13.5254 76.6275 14.0399 76.8695 14.6977 76.8695ZM20.1754 78.2069V70.1986H21.9111L22.0573 71.6176H22.1303C22.447 71.0957 22.8307 70.6961 23.2814 70.4188C23.7319 70.1415 24.1948 70.0029 24.6699 70.0029C25.0961 70.0029 25.4372 70.0572 25.6929 70.1661L25.3275 71.797C25.1692 71.7536 25.023 71.7209 24.8891 71.6991C24.7551 71.6774 24.5906 71.6665 24.3958 71.6665C24.0425 71.6665 23.6711 71.7889 23.2814 72.0335C22.8916 72.2782 22.5566 72.705 22.2765 73.3139V78.2069H20.1754ZM30.1295 78.4026C29.5084 78.4026 28.9298 78.3075 28.3939 78.1172C27.858 77.9269 27.389 77.6524 26.9871 77.2935C26.5852 76.9347 26.2716 76.497 26.0463 75.9806C25.8209 75.4641 25.7083 74.8742 25.7083 74.211C25.7083 73.5585 25.824 72.9714 26.0554 72.4494C26.2868 71.9275 26.5944 71.4872 26.978 71.1283C27.3617 70.7695 27.8032 70.4922 28.3026 70.2965C28.8019 70.1007 29.3134 70.0029 29.8372 70.0029C30.4462 70.0029 30.9821 70.0953 31.445 70.2802C31.9077 70.465 32.2945 70.726 32.6051 71.063C32.9157 71.4002 33.1501 71.8024 33.3084 72.27C33.4668 72.7376 33.5459 73.2485 33.5459 73.8032C33.5459 73.988 33.5368 74.162 33.5185 74.3251C33.5003 74.4882 33.479 74.6187 33.4546 74.7165H27.7545C27.8519 75.4342 28.135 75.9861 28.604 76.372C29.073 76.758 29.6728 76.951 30.4035 76.951C30.7934 76.951 31.1556 76.8994 31.4906 76.7961C31.8256 76.6928 32.1575 76.5488 32.4863 76.3639L33.1988 77.5382C32.7725 77.7882 32.2976 77.9949 31.7737 78.1579C31.25 78.3211 30.702 78.4026 30.1295 78.4026V78.4026ZM27.7362 73.4444H31.719C31.719 72.8245 31.5697 72.3379 31.2715 71.9846C30.973 71.6312 30.5132 71.4545 29.892 71.4545C29.3561 71.4545 28.8871 71.6231 28.4852 71.9601C28.0833 72.2972 27.8336 72.7919 27.7362 73.4444ZM37.0872 78.4026C36.3321 78.4026 35.8023 78.2013 35.4978 77.7991C35.1934 77.3969 35.041 76.8478 35.041 76.1519V67.5544H37.1421V76.2497C37.1421 76.4779 37.1908 76.6385 37.2882 76.7309C37.3855 76.8233 37.4891 76.8695 37.5988 76.8695C37.6475 76.8695 37.6931 76.8695 37.7358 76.8695C37.7784 76.8695 37.8424 76.8586 37.9276 76.8368L38.2016 78.2396C37.9215 78.3483 37.5501 78.4026 37.0872 78.4026V78.4026ZM39.6603 78.2069V67.5401H42.8575C44.6844 67.5401 46.1095 67.9804 47.1326 68.8612C48.1557 69.7419 48.6672 71.063 48.6672 72.8246C48.6672 73.7054 48.5364 74.4827 48.2745 75.1569C48.0126 75.831 47.635 76.3937 47.1417 76.8451C46.6485 77.2963 46.0517 77.6361 45.3513 77.8644C44.6509 78.0927 43.8562 78.2069 42.9672 78.2069H39.6603ZM41.7797 76.6738H42.7114C43.9294 76.6738 44.8642 76.3612 45.5158 75.736C46.1674 75.1107 46.4931 74.1402 46.4931 72.8246C46.4931 71.5198 46.1644 70.5683 45.5066 69.9702C44.8489 69.3722 43.9172 69.0731 42.7114 69.0731H41.7797V76.6738ZM50.1989 78.2069V67.5401H54.2365C54.8576 67.5401 55.4362 67.5945 55.9721 67.7032C56.508 67.8119 56.9709 67.9886 57.3606 68.2333C57.7504 68.4779 58.0578 68.8014 58.2833 69.2036C58.5085 69.606 58.6213 70.1062 58.6213 70.7042C58.6213 71.5198 58.405 72.1776 57.9726 72.6778C57.5402 73.178 56.9648 73.5368 56.2462 73.7542L59.0962 78.2069H56.7211L54.1451 74.0315H52.3182V78.2069H50.1989ZM52.3182 72.5309H54.0172C54.8333 72.5309 55.4575 72.3788 55.8899 72.0743C56.3223 71.7698 56.5385 71.3131 56.5385 70.7042C56.5385 70.0844 56.3223 69.655 55.8899 69.4158C55.4575 69.1766 54.8333 69.0569 54.0172 69.0569H52.3182V72.5309ZM63.5693 72.5309L63.1491 73.8358H66.2002L65.78 72.5309C65.5851 71.9656 65.3993 71.3839 65.2228 70.7858C65.0462 70.1877 64.8726 69.5951 64.7021 69.008H64.6289C64.4585 69.606 64.288 70.2014 64.1174 70.794C63.9469 71.3865 63.7643 71.9656 63.5693 72.5309V72.5309ZM59.5683 78.2069L63.4598 67.5401H65.9445L69.8359 78.2069H67.607L66.6753 75.3201H62.6559L61.7242 78.2069H59.5683ZM71.2579 78.2069L68.8829 67.5401H71.057L72.0983 72.9224C72.1957 73.4987 72.2932 74.0696 72.3906 74.635C72.488 75.2005 72.5856 75.7658 72.683 76.3312H72.756C72.89 75.7658 73.0209 75.1977 73.1488 74.6269C73.2767 74.0559 73.4077 73.4878 73.5417 72.9224L75.0032 67.5401H76.8485L78.31 72.9224C78.444 73.477 78.5779 74.0396 78.7119 74.6105C78.8459 75.1814 78.9799 75.755 79.1139 76.3312H79.187C79.2844 75.755 79.3788 75.1841 79.4701 74.6187C79.5614 74.0533 79.6558 73.4878 79.7533 72.9224L80.7947 67.5401H82.8226L80.539 78.2069H77.9081L76.4283 72.5962C76.3307 72.183 76.2365 71.7725 76.145 71.3647C76.0537 70.9571 75.9715 70.5465 75.8985 70.1334H75.8253C75.7401 70.5465 75.6518 70.9571 75.5604 71.3647C75.4691 71.7725 75.3747 72.183 75.2772 72.5962L73.834 78.2069H71.2579Z" fill="white"/>
<path d="M4.84831 87.2097C4.33796 87.2097 3.86879 87.1316 3.4409 86.9753C3.01302 86.8191 2.64606 86.5931 2.33978 86.2975C2.0336 86.0021 1.79412 85.6386 1.62133 85.2071C1.4486 84.7757 1.3623 84.2882 1.3623 83.7446C1.3623 83.208 1.45064 82.7255 1.6272 82.2975C1.80402 81.8695 2.04922 81.5059 2.36341 81.2071C2.6774 80.9081 3.05226 80.6788 3.488 80.5191C3.92375 80.3595 4.3967 80.2797 4.90709 80.2797C5.17418 80.2797 5.41938 80.3034 5.6432 80.351C5.86696 80.3986 6.07108 80.4614 6.25561 80.5395C6.44003 80.6176 6.60496 80.706 6.75014 80.8045C6.89547 80.903 7.02305 81.0032 7.13296 81.1051L6.59123 81.6555C6.39497 81.4788 6.16728 81.3294 5.9081 81.2071C5.64912 81.0848 5.32329 81.0236 4.93072 81.0236C4.5381 81.0236 4.18487 81.0865 3.87073 81.2122C3.55669 81.3379 3.28975 81.5179 3.07002 81.7522C2.85003 81.9867 2.67933 82.2704 2.55758 82.6032C2.43597 82.9362 2.37509 83.3098 2.37509 83.7243C2.37509 84.1455 2.43194 84.5243 2.54594 84.8606C2.65964 85.1969 2.82467 85.4839 3.04047 85.7218C3.25648 85.9596 3.52332 86.143 3.84128 86.2721C4.1592 86.4012 4.52641 86.4657 4.94251 86.4657C5.2173 86.4657 5.47827 86.43 5.72556 86.3587C5.97295 86.2874 6.17503 86.1906 6.33215 86.0683V84.3256H4.69512V83.6223H7.22717V86.4351C6.97585 86.6594 6.64619 86.8445 6.23785 86.9905C5.82966 87.1367 5.36646 87.2097 4.84831 87.2097V87.2097ZM9.07603 87.0874V80.402H11.4904C11.883 80.402 12.2461 80.4342 12.5797 80.4987C12.9134 80.5633 13.2001 80.6703 13.4394 80.8198C13.6788 80.9693 13.8653 81.1629 13.9988 81.4007C14.1324 81.6385 14.199 81.9306 14.199 82.2771C14.199 82.8003 14.0421 83.2181 13.728 83.5307C13.4139 83.8432 12.99 84.0572 12.456 84.1727L14.4228 87.0874H13.3158L11.4551 84.2645H10.0537V87.0874H9.07603ZM10.0537 83.5715H11.349C11.9536 83.5715 12.4168 83.4644 12.7386 83.2504C13.0605 83.0364 13.2215 82.712 13.2215 82.2771C13.2215 81.8355 13.0605 81.5264 12.7386 81.3497C12.4168 81.1731 11.9536 81.0848 11.349 81.0848H10.0537V83.5715ZM17.0608 83.3472L16.6958 84.3663H19.0157L18.6506 83.3472C18.5094 82.9735 18.3759 82.6015 18.2503 82.2313C18.1246 81.861 17.9991 81.4822 17.8734 81.095H17.8263C17.7085 81.4822 17.5868 81.861 17.4613 82.2313C17.3356 82.6015 17.2021 82.9735 17.0608 83.3472V83.3472ZM14.7054 87.0874L17.32 80.402H18.4269L21.0414 87.0874H19.9933L19.2631 85.0491H16.4484L15.7064 87.0874H14.7054ZM21.7833 87.0874V80.402H23.9855C24.4174 80.402 24.812 80.4359 25.1692 80.5038C25.5265 80.5718 25.8306 80.6822 26.0819 80.8351C26.333 80.9879 26.5294 81.19 26.6707 81.4414C26.8121 81.6929 26.8827 82.002 26.8827 82.3688C26.8827 82.7222 26.814 83.0279 26.6766 83.2861C26.5392 83.5442 26.3448 83.7582 26.0938 83.9281C25.8425 84.098 25.5421 84.2253 25.1928 84.3103C24.8433 84.3952 24.4566 84.4377 24.0326 84.4377H22.7609V87.0874H21.7833ZM22.7609 83.7446H23.9149C24.5902 83.7446 25.0906 83.6343 25.4165 83.4134C25.7423 83.1927 25.9053 82.8444 25.9053 82.3688C25.9053 81.8865 25.7344 81.5518 25.3928 81.365C25.0514 81.1782 24.543 81.0848 23.8679 81.0848H22.7609V83.7446ZM28.0956 87.0874V80.402H29.0732V83.2046H32.6651V80.402H33.6543V87.0874H32.6651V83.9383H29.0732V87.0874H28.0956ZM35.7741 87.0874V80.402H36.7517V87.0874H35.7741ZM41.4389 87.2097C40.9521 87.2097 40.5046 87.1316 40.0963 86.9753C39.688 86.8191 39.3327 86.5931 39.0304 86.2975C38.7283 86.0021 38.4927 85.6386 38.324 85.2071C38.155 84.7757 38.0706 84.2882 38.0706 83.7446C38.0706 83.208 38.1571 82.7255 38.3297 82.2975C38.5026 81.8695 38.742 81.5059 39.0482 81.2071C39.3544 80.9081 39.7155 80.6788 40.1316 80.5191C40.5477 80.3595 41.003 80.2797 41.4978 80.2797C41.9688 80.2797 42.383 80.3629 42.7402 80.5294C43.0975 80.6957 43.3899 80.8877 43.6177 81.1051L43.0876 81.6555C42.8834 81.4652 42.6518 81.3123 42.3928 81.1968C42.1336 81.0814 41.8393 81.0236 41.5096 81.0236C41.1406 81.0236 40.8069 81.0865 40.5085 81.2122C40.2101 81.3379 39.9549 81.5179 39.743 81.7522C39.531 81.9867 39.368 82.2704 39.2543 82.6032C39.1404 82.9362 39.0834 83.3098 39.0834 83.7243C39.0834 84.1455 39.1404 84.5243 39.2543 84.8606C39.368 85.1969 39.527 85.4839 39.7313 85.7218C39.9353 85.9596 40.1847 86.143 40.479 86.2721C40.7734 86.4012 41.1052 86.4657 41.4742 86.4657C41.851 86.4657 42.1808 86.3995 42.4633 86.267C42.746 86.1345 43.0131 85.9494 43.2643 85.7116L43.806 86.2415C43.4998 86.5472 43.1544 86.785 42.7696 86.9549C42.3849 87.1248 41.9413 87.2097 41.4389 87.2097V87.2097ZM47.1036 87.2097C46.5618 87.2097 46.0593 87.1213 45.5962 86.9448C45.133 86.7681 44.7325 86.5269 44.3949 86.2211L44.9837 85.6301C45.2585 85.8815 45.5823 86.0836 45.9553 86.2364C46.3282 86.3893 46.7149 86.4657 47.1153 86.4657C47.6257 86.4657 48.0222 86.3656 48.3047 86.1651C48.5874 85.9647 48.7287 85.7014 48.7287 85.3753C48.7287 85.2054 48.6955 85.061 48.6287 84.9422C48.562 84.8233 48.4716 84.7213 48.3578 84.6364C48.2439 84.5514 48.1085 84.475 47.9515 84.4071C47.7945 84.3392 47.6257 84.2678 47.445 84.193L46.3381 83.7753C46.1574 83.7073 45.973 83.6257 45.7845 83.5307C45.5962 83.4356 45.4272 83.3201 45.2782 83.1842C45.129 83.0482 45.0072 82.8869 44.913 82.7001C44.8188 82.5133 44.7717 82.2975 44.7717 82.0529C44.7717 81.8015 44.8325 81.5672 44.9544 81.3497C45.076 81.1324 45.2447 80.9437 45.4607 80.7841C45.6766 80.6244 45.9318 80.5005 46.2261 80.4121C46.5206 80.3239 46.8444 80.2797 47.1978 80.2797C47.6611 80.2797 48.089 80.3561 48.4814 80.5089C48.874 80.6618 49.2077 80.8605 49.4825 81.1051L48.9525 81.6555C48.7169 81.4585 48.4559 81.3038 48.1693 81.1917C47.8828 81.0797 47.5589 81.0236 47.1978 81.0236C46.766 81.0236 46.4186 81.1102 46.1555 81.2835C45.8925 81.4568 45.7609 81.6962 45.7609 82.002C45.7609 82.165 45.7983 82.3026 45.8728 82.4147C45.9474 82.5268 46.0475 82.6253 46.1733 82.7103C46.2988 82.7952 46.4362 82.87 46.5855 82.9344C46.7346 82.999 46.8876 83.0584 47.0447 83.1128L48.14 83.5205C48.3597 83.602 48.5679 83.6955 48.7641 83.8007C48.9604 83.906 49.1293 84.0283 49.2706 84.1676C49.4118 84.3068 49.5237 84.4699 49.606 84.6568C49.6886 84.8436 49.7298 85.0593 49.7298 85.3039C49.7298 85.5689 49.669 85.8169 49.5473 86.0479C49.4255 86.2789 49.2509 86.481 49.0232 86.6543C48.7956 86.8275 48.5208 86.9634 48.1987 87.062C47.8768 87.1604 47.5118 87.2097 47.1036 87.2097V87.2097ZM55.7479 87.2097C55.206 87.2097 54.7036 87.1213 54.2405 86.9448C53.7772 86.7681 53.3767 86.5269 53.039 86.2211L53.628 85.6301C53.9028 85.8815 54.2266 86.0836 54.5995 86.2364C54.9724 86.3893 55.3592 86.4657 55.7596 86.4657C56.27 86.4657 56.6664 86.3656 56.949 86.1651C57.2317 85.9647 57.373 85.7014 57.373 85.3753C57.373 85.2054 57.3397 85.061 57.2729 84.9422C57.2062 84.8233 57.1159 84.7213 57.0021 84.6364C56.8881 84.5514 56.7527 84.475 56.5958 84.4071C56.4388 84.3392 56.27 84.2678 56.0893 84.193L54.9823 83.7753C54.8017 83.7073 54.6173 83.6257 54.4288 83.5307C54.2405 83.4356 54.0715 83.3201 53.9225 83.1842C53.7732 83.0482 53.6515 82.8869 53.5573 82.7001C53.463 82.5133 53.4159 82.2975 53.4159 82.0529C53.4159 81.8015 53.4768 81.5672 53.5986 81.3497C53.7203 81.1324 53.889 80.9437 54.105 80.7841C54.3208 80.6244 54.576 80.5005 54.8704 80.4121C55.1649 80.3239 55.4887 80.2797 55.8421 80.2797C56.3052 80.2797 56.7331 80.3561 57.1256 80.5089C57.5182 80.6618 57.8519 80.8605 58.1267 81.1051L57.5967 81.6555C57.3612 81.4585 57.1002 81.3038 56.8136 81.1917C56.527 81.0797 56.2032 81.0236 55.8421 81.0236C55.4102 81.0236 55.0627 81.1102 54.7998 81.2835C54.5368 81.4568 54.4052 81.6962 54.4052 82.002C54.4052 82.165 54.4426 82.3026 54.5171 82.4147C54.5917 82.5268 54.6918 82.6253 54.8175 82.7103C54.943 82.7952 55.0805 82.87 55.2296 82.9344C55.3789 82.999 55.5318 83.0584 55.6888 83.1128L56.7841 83.5205C57.004 83.602 57.2121 83.6955 57.4083 83.8007C57.6047 83.906 57.7735 84.0283 57.9149 84.1676C58.0561 84.3068 58.168 84.4699 58.2503 84.6568C58.3329 84.8436 58.3741 85.0593 58.3741 85.3039C58.3741 85.5689 58.3132 85.8169 58.1915 86.0479C58.0697 86.2789 57.8952 86.481 57.6675 86.6543C57.4397 86.8275 57.1651 86.9634 56.843 87.062C56.5211 87.1604 56.1561 87.2097 55.7479 87.2097V87.2097ZM62.2838 87.2097C61.8913 87.2097 61.5243 87.1604 61.1827 87.062C60.8413 86.9634 60.5468 86.8004 60.2995 86.5728C60.0522 86.3451 59.8579 86.0479 59.7165 85.681C59.5752 85.3142 59.5046 84.8623 59.5046 84.3256V80.402H60.482V84.346C60.482 84.7468 60.5291 85.0831 60.6233 85.3549C60.7175 85.6266 60.8452 85.8441 61.0062 86.0072C61.1671 86.1702 61.3575 86.2874 61.5773 86.3587C61.7971 86.43 62.0326 86.4657 62.2838 86.4657C62.5429 86.4657 62.7825 86.43 63.0023 86.3587C63.2221 86.2874 63.4146 86.1702 63.5793 86.0072C63.7442 85.8441 63.8738 85.6266 63.968 85.3549C64.0621 85.0831 64.1092 84.7468 64.1092 84.346V80.402H65.0514V84.3256C65.0514 84.8623 64.9808 85.3142 64.8394 85.681C64.6981 86.0479 64.5039 86.3451 64.2565 86.5728C64.0092 86.8004 63.7167 86.9634 63.3792 87.062C63.0416 87.1604 62.6766 87.2097 62.2838 87.2097V87.2097ZM66.7827 87.0874V80.402H67.7602V87.0874H66.7827ZM71.1283 87.0874V81.1153H68.7964V80.402H74.4494V81.1153H72.1175V87.0874H71.1283ZM75.8389 87.0874V80.402H80.2907V81.1153H76.8165V83.2147H79.7489V83.9383H76.8165V86.3638H80.4084V87.0874H75.8389Z" fill="white"/>
<path fill-rule="evenodd" clip-rule="evenodd" d="M43.1723 51.1818H42.2032C38.2762 39.5329 35.9862 29.4962 35.4704 21.4646C34.7257 9.86896 37.3798 2.45198 41.6307 0.395953C42.0264 0.204714 42.4685 0.0551684 43.1723 0.0452224C43.8759 0.0551684 44.3181 0.204714 44.7137 0.395953C48.9653 2.45243 51.6196 9.87207 50.8736 21.4722C50.357 29.5025 48.067 39.5367 44.1414 51.1818H43.1723ZM39.5684 -2.28882e-05C39.5684 -2.28882e-05 28.0095 3.90566 28.8415 18.9273C29.6735 33.9488 41.1704 51.1737 41.1704 51.1737C34.0926 45.5676 23.6092 28.1029 23.4071 17.8256C23.563 6.98098 31.5639 2.5922 33.8279 1.6289C36.0922 0.665605 38.4907 0.0408713 39.5684 -2.28882e-05ZM29.4739 2.63949C29.4739 2.63949 17.0577 7.20538 19.5131 20.387C21.9686 33.5686 35.035 47.6357 38.9155 50.6236C40.307 51.7626 22.8801 34.3975 21.1905 19.1445C20.3817 13.3857 22.2667 7.00211 29.4739 2.63949ZM57.1484 2.63949C57.1484 2.63949 69.5646 7.20538 67.1091 20.387C64.6537 33.5686 51.5871 47.6357 47.7066 50.6236C46.3155 51.7626 63.7422 34.3975 65.4318 19.1445C66.2406 13.3857 64.3556 7.00211 57.1484 2.63949ZM46.9991 -2.28882e-05C46.9991 -2.28882e-05 58.558 3.90566 57.726 18.9273C56.8939 33.9488 45.3968 51.1737 45.3968 51.1737C52.4749 45.5676 62.958 28.1029 63.1602 17.8256C63.0045 6.98098 55.0035 2.5922 52.7393 1.6289C50.4753 0.665605 48.0768 0.0408713 46.9991 -2.28882e-05V-2.28882e-05Z" fill="white"/>
<path fill-rule="evenodd" clip-rule="evenodd" d="M48.1234 54.1446H38.2214L39.5511 59.4852H46.7762L48.1234 54.1446Z" fill="white"/>
</svg>
