<svg width="111" height="108" viewBox="0 0 111 108" fill="none" xmlns="http://www.w3.org/2000/svg">
<path d="M30.2045 14.783C32.5672 12.4765 35.7718 11.1808 39.1132 11.1808H51.712V35.7784H39.1132C35.7718 35.7784 32.5672 34.4827 30.2045 32.1762C27.8418 29.8697 26.5144 26.7414 26.5144 23.4796C26.5144 20.2177 27.8418 17.0895 30.2045 14.783Z" fill="white"/>
<path d="M71.1829 35.7784H58.5841V11.1808H71.1829C72.8374 11.1808 74.4757 11.4989 76.0043 12.117C77.5328 12.735 78.9217 13.641 80.0916 14.783C81.2615 15.9251 82.1895 17.2809 82.8227 18.773C83.4559 20.2652 83.7817 21.8645 83.7817 23.4796C83.7817 25.0947 83.4559 26.694 82.8227 28.1862C82.1895 29.6783 81.2615 31.0341 80.0916 32.1762C78.9217 33.3182 77.5328 34.2242 76.0043 34.8422C74.4757 35.4603 72.8374 35.7784 71.1829 35.7784Z" fill="white"/>
<path d="M71.1829 42.4869C69.5284 42.4869 67.8901 42.805 66.3616 43.4231C64.833 44.0412 63.4441 44.9471 62.2742 46.0892C61.1043 47.2312 60.1763 48.587 59.5431 50.0792C58.91 51.5713 58.5841 53.1706 58.5841 54.7857C58.5841 56.4009 58.91 58.0001 59.5431 59.4923C60.1763 60.9845 61.1043 62.3403 62.2742 63.4823C63.4441 64.6244 64.833 65.5303 66.3616 66.1484C67.8901 66.7665 69.5284 67.0846 71.1829 67.0846C72.8374 67.0846 74.4757 66.7665 76.0043 66.1484C77.5328 65.5303 78.9217 64.6244 80.0916 63.4823C81.2615 62.3403 82.1895 60.9845 82.8227 59.4923C83.4559 58.0001 83.7817 56.4008 83.7817 54.7857C83.7817 53.1706 83.4559 51.5714 82.8227 50.0792C82.1895 48.587 81.2615 47.2312 80.0916 46.0892C78.9217 44.9471 77.5328 44.0412 76.0043 43.4231C74.4757 42.805 72.8374 42.4869 71.1829 42.4869Z" fill="white"/>
<path d="M30.2045 77.3953C32.5672 75.0888 35.7718 73.7931 39.1132 73.7931H51.712V86.0919C51.712 89.3537 50.3846 92.482 48.0219 94.7885C45.6592 97.095 42.4546 98.3907 39.1132 98.3907C35.7718 98.3907 32.5672 97.095 30.2045 94.7885C27.8418 92.482 26.5144 89.3537 26.5144 86.0919C26.5144 82.83 27.8418 79.7018 30.2045 77.3953Z" fill="white"/>
<path d="M39.1132 42.4869C35.7718 42.4869 32.5672 43.7827 30.2045 46.0892C27.8418 48.3956 26.5144 51.5239 26.5144 54.7857C26.5144 58.0476 27.8418 61.1759 30.2045 63.4823C32.5672 65.7888 35.7718 67.0846 39.1132 67.0846H51.712V42.4869H39.1132Z" fill="white"/>
</svg>
