<svg width="111" height="108" viewBox="0 0 111 108" fill="none" xmlns="http://www.w3.org/2000/svg">
<path d="M30.4591 14.7832C32.8219 12.4767 36.0264 11.1809 39.3678 11.1809H51.9667V35.7786H39.3678C36.0264 35.7786 32.8219 34.4828 30.4591 32.1763C28.0964 29.8698 26.769 26.7416 26.769 23.4797C26.769 20.2179 28.0964 17.0896 30.4591 14.7832Z" fill="#8C8C8C"/>
<path d="M71.4376 35.7786H58.8388V11.1809H71.4376C73.0921 11.1809 74.7304 11.499 76.2589 12.1171C77.7875 12.7352 79.1764 13.6411 80.3463 14.7832C81.5162 15.9252 82.4442 17.281 83.0773 18.7732C83.7105 20.2653 84.0364 21.8646 84.0364 23.4797C84.0364 25.0948 83.7105 26.6941 83.0773 28.1863C82.4442 29.6785 81.5162 31.0343 80.3463 32.1763C79.1764 33.3184 77.7875 34.2243 76.2589 34.8424C74.7304 35.4605 73.0921 35.7786 71.4376 35.7786Z" fill="#8C8C8C"/>
<path d="M71.4376 42.4871C69.7831 42.4871 68.1448 42.8052 66.6162 43.4232C65.0877 44.0413 63.6988 44.9473 62.5289 46.0893C61.359 47.2314 60.4309 48.5872 59.7978 50.0793C59.1646 51.5715 58.8388 53.1708 58.8388 54.7859C58.8388 56.401 59.1646 58.0003 59.7978 59.4925C60.4309 60.9846 61.359 62.3404 62.5289 63.4825C63.6988 64.6245 65.0877 65.5305 66.6162 66.1485C68.1448 66.7666 69.7831 67.0847 71.4376 67.0847C73.0921 67.0847 74.7304 66.7666 76.2589 66.1485C77.7875 65.5305 79.1764 64.6245 80.3463 63.4825C81.5162 62.3404 82.4442 60.9846 83.0773 59.4925C83.7105 58.0003 84.0364 56.401 84.0364 54.7859C84.0364 53.1708 83.7105 51.5715 83.0773 50.0793C82.4442 48.5872 81.5162 47.2314 80.3463 46.0893C79.1764 44.9473 77.7875 44.0413 76.2589 43.4232C74.7304 42.8052 73.0921 42.4871 71.4376 42.4871Z" fill="#8C8C8C"/>
<path d="M30.4591 77.3954C32.8219 75.089 36.0264 73.7932 39.3678 73.7932H51.9667V86.092C51.9667 89.3539 50.6393 92.4821 48.2765 94.7886C45.9138 97.0951 42.7093 98.3909 39.3678 98.3909C36.0264 98.3909 32.8219 97.0951 30.4591 94.7886C28.0964 92.4821 26.769 89.3539 26.769 86.092C26.769 82.8302 28.0964 79.7019 30.4591 77.3954Z" fill="#8C8C8C"/>
<path d="M39.3678 42.4871C36.0264 42.4871 32.8219 43.7828 30.4591 46.0893C28.0964 48.3958 26.769 51.524 26.769 54.7859C26.769 58.0477 28.0964 61.176 30.4591 63.4825C32.8219 65.789 36.0264 67.0847 39.3678 67.0847H51.9667V42.4871H39.3678Z" fill="#8C8C8C"/>
</svg>
