<svg width="43" height="43" viewBox="0 0 43 43" fill="none" xmlns="http://www.w3.org/2000/svg">
<circle cx="21.5251" cy="21.3454" r="20.5043" stroke="#8C8C8C"/>
<path fill-rule="evenodd" clip-rule="evenodd" d="M19.7316 20.725C20.2599 20.4966 20.719 20.1243 21.0603 19.6475C21.374 19.141 21.5298 18.5466 21.5066 17.9449C21.5269 17.3963 21.4239 16.8503 21.2056 16.3502C21.0222 15.9169 20.7278 15.5442 20.3544 15.2726C19.9586 14.9903 19.5091 14.7992 19.0362 14.7123C18.4765 14.5905 17.9056 14.5327 17.3338 14.5399H11.4338C11.2699 14.5399 11.137 14.6705 11.137 14.8316V27.8037C11.137 27.9648 11.2699 28.0954 11.4338 28.0954H17.4688C18.0466 28.0958 18.6222 28.0198 19.1815 27.8691C19.7116 27.7267 20.2139 27.4897 20.6658 27.1687C21.1036 26.8538 21.46 26.4319 21.7038 25.9403C21.9736 25.3905 22.1057 24.7791 22.0879 24.1624C22.1075 23.3981 21.901 22.646 21.4962 22.0073C21.0609 21.365 20.4152 20.9092 19.6797 20.725H19.7316ZM14.1545 16.727C14.0453 16.727 13.9567 16.8141 13.9567 16.9215V19.9357C13.9567 20.0431 14.0453 20.1301 14.1545 20.1301H16.9248C17.881 20.1301 18.6562 19.3683 18.6562 18.4286C18.6562 17.4888 17.881 16.727 16.9248 16.727H14.1545ZM13.9567 22.0262C13.9567 21.9188 14.0453 21.8317 14.1545 21.8317H17.0485C18.2096 21.8317 19.1509 22.7568 19.1509 23.8979C19.1509 25.039 18.2096 25.9641 17.0485 25.9641H14.1545C14.0453 25.9641 13.9567 25.877 13.9567 25.7696V22.0262Z" fill="#8C8C8C"/>
<path d="M24.9278 15.2295H29.6008C29.7632 15.2295 29.8954 15.3578 29.8976 15.5173L29.9104 16.4533C29.9126 16.6159 29.7791 16.7489 29.6136 16.7489H24.9278C24.7639 16.7489 24.631 16.6183 24.631 16.4572V15.5212C24.631 15.3601 24.7639 15.2295 24.9278 15.2295Z" fill="#8C8C8C"/>
<path fill-rule="evenodd" clip-rule="evenodd" d="M27.4336 26.0804C27.9123 26.0956 28.3837 25.9563 28.783 25.6817C29.0401 25.5135 29.2449 25.2732 29.3745 24.9899C29.4088 24.915 29.4824 24.8628 29.5661 24.8628H31.4667C31.5955 24.8628 31.6901 24.982 31.6521 25.103C31.3624 26.0258 30.7942 26.8302 30.0286 27.395C29.2055 27.9183 28.253 28.1805 27.2883 28.1493C26.6007 28.1614 25.9172 28.0371 25.2745 27.7829C24.6982 27.5457 24.1804 27.1775 23.7591 26.7054C23.3518 26.2245 23.0413 25.664 22.8456 25.0567C22.6153 24.3862 22.5028 23.6781 22.5135 22.9663C22.5071 22.2644 22.6232 21.5672 22.856 20.9082C23.073 20.2978 23.4086 19.7403 23.8421 19.2703C24.2768 18.8096 24.7955 18.4433 25.368 18.1928C25.9931 17.9245 26.6637 17.7889 27.3402 17.7941C28.0594 17.7826 28.771 17.9488 29.4162 18.279C29.996 18.5925 30.5 19.0382 30.8901 19.5828C31.2777 20.1442 31.5595 20.7768 31.7205 21.447C31.887 22.1514 31.9465 22.8785 31.897 23.602H25.0254C24.995 24.2969 25.2258 24.9769 25.669 25.4985C25.9087 25.7163 26.1892 25.8805 26.4928 25.9806C26.7964 26.0807 27.1167 26.1147 27.4336 26.0804ZM25.0872 21.7333C25.0872 21.7876 25.132 21.8317 25.1873 21.8317H29.1919C29.2472 21.8317 29.292 21.7876 29.292 21.7333C29.292 20.6465 28.3955 19.7655 27.2897 19.7655H27.0895C25.9836 19.7655 25.0872 20.6465 25.0872 21.7333Z" fill="#8C8C8C"/>
</svg>
