<svg width="43" height="43" viewBox="0 0 43 43" fill="none" xmlns="http://www.w3.org/2000/svg">
<circle cx="21.4745" cy="21.6281" r="20.5043" stroke="white"/>
<path fill-rule="evenodd" clip-rule="evenodd" d="M19.6811 21.0077C20.2094 20.7793 20.6684 20.407 21.0097 19.9301C21.3234 19.4237 21.4793 18.8292 21.4561 18.2276C21.4764 17.679 21.3733 17.1329 21.155 16.6328C20.9716 16.1996 20.6772 15.8269 20.3039 15.5553C19.908 15.273 19.4585 15.0819 18.9856 14.995C18.4259 14.8731 17.8551 14.8153 17.2833 14.8226H11.3832C11.2193 14.8226 11.0864 14.9532 11.0864 15.1143V28.0864C11.0864 28.2475 11.2193 28.3781 11.3832 28.3781H17.4182C17.9961 28.3785 18.5716 28.3024 19.1309 28.1518C19.6611 28.0094 20.1634 27.7724 20.6153 27.4514C21.053 27.1364 21.4095 26.7146 21.6533 26.223C21.9231 25.6732 22.0551 25.0617 22.0373 24.445C22.057 23.6808 21.8505 22.9286 21.4457 22.2899C21.0103 21.6476 20.3646 21.1918 19.6292 21.0077H19.6811ZM14.104 17.0097C13.9947 17.0097 13.9061 17.0967 13.9061 17.2041V20.2183C13.9061 20.3257 13.9947 20.4128 14.104 20.4128H16.8743C17.8305 20.4128 18.6057 19.651 18.6057 18.7112C18.6057 17.7715 17.8305 17.0097 16.8743 17.0097H14.104ZM13.9061 22.3088C13.9061 22.2014 13.9947 22.1144 14.104 22.1144H16.9979C18.1591 22.1144 19.1004 23.0394 19.1004 24.1805C19.1004 25.3216 18.1591 26.2467 16.9979 26.2467H14.104C13.9947 26.2467 13.9061 26.1596 13.9061 26.0522V22.3088Z" fill="white"/>
<path d="M24.8773 15.5122H29.5503C29.7126 15.5122 29.8449 15.6404 29.847 15.8L29.8598 16.7359C29.8621 16.8985 29.7285 17.0315 29.563 17.0315H24.8773C24.7133 17.0315 24.5804 16.9009 24.5804 16.7398V15.8039C24.5804 15.6428 24.7133 15.5122 24.8773 15.5122Z" fill="white"/>
<path fill-rule="evenodd" clip-rule="evenodd" d="M27.383 26.363C27.8617 26.3783 28.3332 26.239 28.7324 25.9644C28.9895 25.7961 29.1943 25.5559 29.3239 25.2726C29.3583 25.1976 29.4319 25.1454 29.5155 25.1454H31.4161C31.545 25.1454 31.6396 25.2647 31.6016 25.3857C31.3118 26.3085 30.7437 27.1129 29.978 27.6776C29.155 28.201 28.2025 28.4632 27.2377 28.4319C26.5501 28.4441 25.8666 28.3197 25.224 28.0656C24.6477 27.8283 24.1298 27.4602 23.7085 26.988C23.3013 26.5071 22.9907 25.9466 22.7951 25.3394C22.5647 24.6688 22.4522 23.9608 22.4629 23.2489C22.4566 22.5471 22.5726 21.8498 22.8055 21.1908C23.0224 20.5804 23.3581 20.0229 23.7916 19.553C24.2263 19.0923 24.745 18.726 25.3174 18.4754C25.9426 18.2072 26.6132 18.0716 27.2896 18.0767C28.0089 18.0652 28.7205 18.2314 29.3656 18.5616C29.9455 18.8751 30.4494 19.3209 30.8396 19.8655C31.2272 20.4269 31.509 21.0594 31.67 21.7296C31.8364 22.4341 31.896 23.1612 31.8464 23.8847H24.9749C24.9445 24.5796 25.1752 25.2595 25.6184 25.7812C25.8582 25.999 26.1386 26.1631 26.4423 26.2632C26.7459 26.3634 27.0662 26.3973 27.383 26.363ZM25.0366 22.016C25.0366 22.0703 25.0814 22.1144 25.1367 22.1144H29.1414C29.1966 22.1144 29.2415 22.0703 29.2415 22.016C29.2415 20.9292 28.345 20.0482 27.2392 20.0482H27.0389C25.9331 20.0482 25.0366 20.9292 25.0366 22.016Z" fill="white"/>
</svg>
