<svg width="43" height="43" viewBox="0 0 43 43" fill="none" xmlns="http://www.w3.org/2000/svg">
<circle cx="21.4216" cy="21.6281" r="20.5043" stroke="white"/>
<path d="M21.0218 11.7853C15.7542 11.7853 11.4819 16.0568 11.4819 21.3252C11.4819 25.5402 14.2151 29.116 18.0064 30.3777C18.4826 30.4659 18.6368 30.1702 18.6368 29.919V28.143C15.9831 28.7201 15.4306 27.0173 15.4306 27.0173C14.9966 25.9146 14.3709 25.6213 14.3709 25.6213C13.5052 25.029 14.4369 25.0417 14.4369 25.0417C15.3949 25.1085 15.8989 26.0251 15.8989 26.0251C16.7495 27.4831 18.1304 27.0618 18.675 26.8177C18.76 26.2016 19.0073 25.7803 19.2807 25.5426C17.1621 25.3001 14.9346 24.4821 14.9346 20.8275C14.9346 19.7853 15.3074 18.9346 15.9172 18.2669C15.8186 18.026 15.4918 17.0553 16.0102 15.742C16.0102 15.742 16.8115 15.486 18.6344 16.7198C19.3952 16.5083 20.2109 16.4026 21.0218 16.3986C21.8326 16.4026 22.6491 16.5083 23.4115 16.7198C25.2328 15.486 26.0326 15.742 26.0326 15.742C26.5517 17.0561 26.2249 18.0268 26.1264 18.2669C26.7385 18.9346 27.1082 19.7861 27.1082 20.8275C27.1082 24.4916 24.8766 25.2985 22.7524 25.5346C23.0943 25.8303 23.4067 26.4107 23.4067 27.3011V29.919C23.4067 30.1726 23.5594 30.4707 24.0435 30.3769C27.8316 29.1136 30.5616 25.5386 30.5616 21.3252C30.5616 16.0568 26.2901 11.7853 21.0218 11.7853Z" fill="white"/>
</svg>
