<svg width="43" height="43" viewBox="0 0 43 43" fill="none" xmlns="http://www.w3.org/2000/svg">
<circle cx="21.4721" cy="21.3454" r="20.5043" stroke="#8C8C8C"/>
<path d="M21.0723 11.5027C15.8047 11.5027 11.5325 15.7742 11.5325 21.0426C11.5325 25.2576 14.2656 28.8334 18.0569 30.0951C18.5331 30.1833 18.6873 29.8876 18.6873 29.6364V27.8604C16.0337 28.4375 15.4812 26.7347 15.4812 26.7347C15.0471 25.632 14.4214 25.3387 14.4214 25.3387C13.5557 24.7464 14.4874 24.7591 14.4874 24.7591C15.4454 24.8259 15.9494 25.7425 15.9494 25.7425C16.8 27.2005 18.1809 26.7792 18.7255 26.5351C18.8106 25.919 19.0578 25.4977 19.3313 25.26C17.2126 25.0175 14.9851 24.1995 14.9851 20.5449C14.9851 19.5027 15.3579 18.6521 15.9677 17.9843C15.8691 17.7434 15.5424 16.7727 16.0607 15.4594C16.0607 15.4594 16.8621 15.2034 18.685 16.4372C19.4458 16.2258 20.2614 16.12 21.0723 16.116C21.8832 16.12 22.6996 16.2258 23.462 16.4372C25.2833 15.2034 26.0831 15.4594 26.0831 15.4594C26.6022 16.7735 26.2755 17.7442 26.1769 17.9843C26.789 18.6521 27.1587 19.5035 27.1587 20.5449C27.1587 24.209 24.9272 25.0159 22.803 25.252C23.1448 25.5478 23.4573 26.1281 23.4573 27.0185V29.6364C23.4573 29.89 23.6099 30.1881 24.094 30.0943C27.8821 28.831 30.6121 25.256 30.6121 21.0426C30.6121 15.7742 26.3407 11.5027 21.0723 11.5027Z" fill="#8C8C8C"/>
</svg>
