<svg width="43" height="43" viewBox="0 0 43 43" fill="none" xmlns="http://www.w3.org/2000/svg">
<circle cx="21.1562" cy="21.3454" r="20.5043" stroke="#8C8C8C"/>
<path d="M21.0431 17.6753C19.1834 17.6753 17.6758 19.1829 17.6758 21.0426C17.6758 22.9023 19.1834 24.4099 21.0431 24.4099C22.9028 24.4099 24.4104 22.9023 24.4104 21.0426C24.4104 19.1829 22.9028 17.6753 21.0431 17.6753Z" fill="#8C8C8C"/>
<path fill-rule="evenodd" clip-rule="evenodd" d="M15.6239 11.8022C19.1964 11.4029 22.8898 11.4029 26.4623 11.8022C28.4292 12.022 30.0157 13.5718 30.2465 15.5456C30.6737 19.1978 30.6737 22.8874 30.2465 26.5396C30.0157 28.5134 28.4292 30.0631 26.4623 30.2829C22.8898 30.6822 19.1964 30.6822 15.6239 30.2829C13.657 30.0631 12.0705 28.5134 11.8397 26.5396C11.4125 22.8874 11.4125 19.1978 11.8397 15.5456C12.0705 13.5718 13.657 12.022 15.6239 11.8022ZM26.2235 14.8261C25.6513 14.8261 25.1874 15.2899 25.1874 15.8621C25.1874 16.4344 25.6513 16.8982 26.2235 16.8982C26.7957 16.8982 27.2596 16.4344 27.2596 15.8621C27.2596 15.2899 26.7957 14.8261 26.2235 14.8261ZM16.1217 21.0426C16.1217 18.3246 18.3251 16.1212 21.0431 16.1212C23.7611 16.1212 25.9645 18.3246 25.9645 21.0426C25.9645 23.7606 23.7611 25.964 21.0431 25.964C18.3251 25.964 16.1217 23.7606 16.1217 21.0426Z" fill="#8C8C8C"/>
</svg>
