<svg width="43" height="43" viewBox="0 0 43 43" fill="none" xmlns="http://www.w3.org/2000/svg">
<circle cx="21.1056" cy="21.6281" r="20.5043" stroke="white"/>
<path d="M20.9925 17.9579C19.1328 17.9579 17.6253 19.4655 17.6253 21.3252C17.6253 23.1849 19.1328 24.6925 20.9925 24.6925C22.8522 24.6925 24.3598 23.1849 24.3598 21.3252C24.3598 19.4655 22.8522 17.9579 20.9925 17.9579Z" fill="white"/>
<path fill-rule="evenodd" clip-rule="evenodd" d="M15.5733 12.0848C19.1459 11.6855 22.8392 11.6855 26.4118 12.0848C28.3787 12.3046 29.9651 13.8544 30.196 15.8282C30.6231 19.4804 30.6231 23.1699 30.196 26.8222C29.9651 28.796 28.3787 30.3457 26.4118 30.5655C22.8392 30.9648 19.1459 30.9648 15.5733 30.5655C13.6064 30.3457 12.02 28.796 11.7891 26.8222C11.362 23.1699 11.362 19.4804 11.7891 15.8282C12.02 13.8544 13.6064 12.3046 15.5733 12.0848ZM26.173 15.1087C25.6008 15.1087 25.1369 15.5725 25.1369 16.1447C25.1369 16.717 25.6008 17.1808 26.173 17.1808C26.7452 17.1808 27.2091 16.717 27.2091 16.1447C27.2091 15.5725 26.7452 15.1087 26.173 15.1087ZM16.0711 21.3252C16.0711 18.6072 18.2745 16.4038 20.9925 16.4038C23.7106 16.4038 25.9139 18.6072 25.9139 21.3252C25.9139 24.0432 23.7106 26.2466 20.9925 26.2466C18.2745 26.2466 16.0711 24.0432 16.0711 21.3252Z" fill="white"/>
</svg>
