<svg width="43" height="43" viewBox="0 0 43 43" fill="none" xmlns="http://www.w3.org/2000/svg">
<circle cx="21.8407" cy="21.3454" r="20.5043" stroke="#8C8C8C"/>
<path d="M14.3291 10.5595C13.1132 10.5595 12.1274 11.5452 12.1274 12.7612C12.1274 13.9771 13.1132 14.9629 14.3291 14.9629C15.5451 14.9629 16.5308 13.9771 16.5308 12.7612C16.5308 11.5452 15.5451 10.5595 14.3291 10.5595Z" fill="#8C8C8C"/>
<path d="M12.257 16.776C12.1854 16.776 12.1274 16.834 12.1274 16.9055V30.3747C12.1274 30.4462 12.1854 30.5042 12.257 30.5042H16.4013C16.4728 30.5042 16.5308 30.4462 16.5308 30.3747V16.9055C16.5308 16.834 16.4728 16.776 16.4013 16.776H12.257Z" fill="#8C8C8C"/>
<path d="M18.9915 16.776C18.92 16.776 18.862 16.834 18.862 16.9055V30.3747C18.862 30.4462 18.92 30.5042 18.9915 30.5042H23.1359C23.2074 30.5042 23.2654 30.4462 23.2654 30.3747V23.1221C23.2654 22.6068 23.47 22.1127 23.8344 21.7484C24.1987 21.3841 24.6928 21.1794 25.208 21.1794C25.7233 21.1794 26.2174 21.3841 26.5817 21.7484C26.946 22.1127 27.1507 22.6068 27.1507 23.1221V30.3747C27.1507 30.4462 27.2087 30.5042 27.2802 30.5042H31.4246C31.4961 30.5042 31.5541 30.4462 31.5541 30.3747V21.4439C31.5541 18.9295 29.3673 16.9625 26.8656 17.1899C26.0941 17.2601 25.3313 17.4519 24.619 17.7571L23.2654 18.3373V16.9055C23.2654 16.834 23.2074 16.776 23.1359 16.776H18.9915Z" fill="#8C8C8C"/>
</svg>
