<svg width="43" height="43" viewBox="0 0 43 43" fill="none" xmlns="http://www.w3.org/2000/svg">
<circle cx="21.7902" cy="21.6281" r="20.5043" stroke="white"/>
<path d="M14.2786 10.8421C13.0626 10.8421 12.0769 11.8279 12.0769 13.0438C12.0769 14.2598 13.0626 15.2455 14.2786 15.2455C15.4945 15.2455 16.4803 14.2598 16.4803 13.0438C16.4803 11.8279 15.4945 10.8421 14.2786 10.8421Z" fill="white"/>
<path d="M12.2064 17.0587C12.1349 17.0587 12.0769 17.1166 12.0769 17.1882V30.6573C12.0769 30.7288 12.1349 30.7868 12.2064 30.7868H16.3508C16.4223 30.7868 16.4803 30.7288 16.4803 30.6573V17.1882C16.4803 17.1166 16.4223 17.0587 16.3508 17.0587H12.2064Z" fill="white"/>
<path d="M18.941 17.0587C18.8695 17.0587 18.8115 17.1166 18.8115 17.1882V30.6573C18.8115 30.7288 18.8695 30.7868 18.941 30.7868H23.0853C23.1569 30.7868 23.2148 30.7288 23.2148 30.6573V23.4047C23.2148 22.8895 23.4195 22.3953 23.7838 22.031C24.1481 21.6667 24.6423 21.462 25.1575 21.462C25.6727 21.462 26.1668 21.6667 26.5312 22.031C26.8955 22.3953 27.1002 22.8895 27.1002 23.4047V30.6573C27.1002 30.7288 27.1581 30.7868 27.2297 30.7868H31.374C31.4455 30.7868 31.5035 30.7288 31.5035 30.6573V21.7265C31.5035 19.2122 29.3168 17.2451 26.8151 17.4726C26.0436 17.5427 25.2807 17.7345 24.5685 18.0398L23.2148 18.6199V17.1882C23.2148 17.1166 23.1569 17.0587 23.0853 17.0587H18.941Z" fill="white"/>
</svg>
