<svg width="43" height="42" viewBox="0 0 43 42" fill="none" xmlns="http://www.w3.org/2000/svg">
<circle cx="21.5267" cy="21.2605" r="20.1368" stroke="white"/>
<path fill-rule="evenodd" clip-rule="evenodd" d="M11.8783 31.3173C11.7936 31.625 12.0738 31.909 12.3826 31.8283L17.1562 30.5815C18.6631 31.3977 20.3596 31.8313 22.0869 31.8313H22.092C27.7759 31.8313 32.4093 27.2248 32.4093 21.5623C32.4093 18.8178 31.338 16.2365 29.3904 14.298C27.4428 12.3595 24.8545 11.2882 22.0919 11.2882C16.408 11.2882 11.7747 15.8947 11.7747 21.5573C11.774 23.3586 12.2495 25.1285 13.1534 26.6891L11.8783 31.3173ZM18.822 16.6447C19.0115 16.6497 19.2217 16.66 19.4216 17.1038C19.5542 17.3993 19.7776 17.9432 19.9595 18.3863C20.1011 18.7311 20.2176 19.0149 20.2468 19.0729C20.3134 19.2056 20.3544 19.3586 20.2673 19.5371C20.257 19.5582 20.2473 19.5783 20.238 19.5977C20.1681 19.7427 20.1183 19.846 20.0008 19.9809C19.9525 20.0364 19.9021 20.0972 19.852 20.1579C19.7638 20.2645 19.6761 20.3704 19.601 20.4452C19.4678 20.5777 19.3293 20.7207 19.4831 20.9859C19.6369 21.2511 20.1751 22.1235 20.9695 22.8275C21.8236 23.5879 22.5663 23.9083 22.9417 24.0703C23.0146 24.1017 23.0736 24.1272 23.1169 24.1488C23.3835 24.2814 23.5424 24.261 23.6961 24.0825C23.8499 23.9038 24.3624 23.307 24.5418 23.0417C24.7161 22.7765 24.8954 22.8173 25.1415 22.9091C25.3875 23.0009 26.6996 23.6437 26.9661 23.7763C27.0187 23.8025 27.068 23.8262 27.1137 23.8481C27.2991 23.937 27.4251 23.9974 27.4786 24.0875C27.5452 24.1997 27.5452 24.7303 27.3249 25.3527C27.0994 25.975 26.0128 26.5719 25.5207 26.6178C25.4741 26.6222 25.4278 26.6278 25.3801 26.6336C24.9292 26.6881 24.3567 26.7573 22.3174 25.9546C19.8045 24.9664 18.1457 22.5146 17.8103 22.019C17.7838 21.9798 17.7656 21.9529 17.7559 21.9398L17.7502 21.9322C17.5976 21.7281 16.6642 20.479 16.6642 19.1903C16.6642 17.9573 17.2715 17.3154 17.5486 17.0226C17.5661 17.0041 17.5824 16.9869 17.597 16.9711C17.843 16.7059 18.1301 16.6396 18.3094 16.6396C18.4889 16.6396 18.6682 16.6396 18.822 16.6447Z" fill="white"/>
</svg>
