<svg width="43" height="42" viewBox="0 0 43 42" fill="none" xmlns="http://www.w3.org/2000/svg">
<circle cx="21.5772" cy="20.9779" r="20.1368" stroke="#8C8C8C"/>
<path fill-rule="evenodd" clip-rule="evenodd" d="M11.9289 31.0346C11.8441 31.3423 12.1244 31.6264 12.4332 31.5457L17.2068 30.2989C18.7136 31.1151 20.4101 31.5487 22.1374 31.5487H22.1425C27.8265 31.5487 32.4598 26.9422 32.4598 21.2797C32.4598 18.5352 31.3885 15.9539 29.4409 14.0154C27.4934 12.0769 24.905 11.0056 22.1424 11.0056C16.4585 11.0056 11.8252 15.6121 11.8252 21.2746C11.8246 23.076 12.3 24.8459 13.2039 26.4065L11.9289 31.0346ZM18.8725 16.362C19.0621 16.3671 19.2722 16.3774 19.4722 16.8212C19.6048 17.1167 19.8281 17.6606 20.0101 18.1037C20.1517 18.4485 20.2682 18.7322 20.2973 18.7903C20.3639 18.9229 20.405 19.076 20.3178 19.2545C20.3076 19.2755 20.2979 19.2957 20.2885 19.3151C20.2186 19.4601 20.1689 19.5633 20.0514 19.6983C20.003 19.7538 19.9527 19.8146 19.9025 19.8752C19.8143 19.9818 19.7267 20.0877 19.6515 20.1626C19.5183 20.2951 19.3799 20.4381 19.5336 20.7033C19.6874 20.9685 20.2256 21.8409 21.02 22.5449C21.8741 23.3052 22.6168 23.6257 22.9922 23.7877C23.0651 23.8191 23.1241 23.8446 23.1675 23.8661C23.434 23.9988 23.5929 23.9783 23.7466 23.7998C23.9005 23.6212 24.4129 23.0244 24.5924 22.7591C24.7666 22.4939 24.946 22.5347 25.192 22.6265C25.438 22.7183 26.7501 23.3611 27.0166 23.4937C27.0693 23.5199 27.1185 23.5435 27.1642 23.5654C27.3496 23.6544 27.4757 23.7148 27.5291 23.8049C27.5958 23.9171 27.5958 24.4477 27.3754 25.07C27.1499 25.6924 26.0633 26.2893 25.5713 26.3352C25.5247 26.3395 25.4783 26.3452 25.4306 26.3509C24.9797 26.4055 24.4073 26.4747 22.3679 25.672C19.855 24.6838 18.1962 22.232 17.8609 21.7363C17.8344 21.6972 17.8162 21.6703 17.8064 21.6572L17.8007 21.6496C17.6482 21.4454 16.7147 20.1964 16.7147 18.9077C16.7147 17.6747 17.3221 17.0328 17.5991 16.74C17.6167 16.7215 17.6329 16.7043 17.6476 16.6885C17.8935 16.4233 18.1806 16.3569 18.36 16.3569C18.5394 16.3569 18.7188 16.3569 18.8725 16.362Z" fill="#8C8C8C"/>
</svg>
